<?xml version="1.0" standalone="no"?>
<!DOCTYPE svg PUBLIC "-//W3C//DTD SVG 20010904//EN"
 "http://www.w3.org/TR/2001/REC-SVG-20010904/DTD/svg10.dtd">
<svg version="1.0" xmlns="http://www.w3.org/2000/svg"
 width="16.000000pt" height="16.000000pt" viewBox="0 0 16.000000 16.000000"
 preserveAspectRatio="xMidYMid meet">
<metadata>
Created by potrace 1.11, written by Peter Selinger 2001-2013
</metadata>
<g transform="translate(0.000000,16.000000) scale(0.005333,-0.005333)"
fill="#000000" stroke="none">
<path d="M1506 2892 c-3 -5 -7 -22 -10 -38 -12 -67 -18 -84 -27 -79 -5 4 -6
-1 -3 -10 4 -8 0 -23 -7 -32 -8 -10 -9 -14 -2 -10 11 7 -13 -52 -26 -63 -3 -3
-7 -9 -8 -15 -5 -31 -9 -41 -23 -52 -8 -7 -12 -13 -7 -13 11 0 -32 -80 -43
-80 -6 0 -9 -6 -8 -12 2 -7 -2 -12 -9 -11 -7 2 -10 -3 -7 -10 6 -18 -33 -67
-54 -67 -13 0 -14 -2 -3 -9 11 -7 10 -12 -5 -29 -10 -12 -21 -19 -26 -16 -4 3
-5 -3 -1 -12 4 -12 3 -15 -5 -10 -7 4 -12 1 -12 -9 0 -9 -4 -13 -10 -10 -6 4
-7 -1 -3 -11 5 -13 3 -16 -9 -11 -10 3 -19 0 -22 -9 -4 -10 -2 -13 7 -8 8 5 8
2 -2 -9 -7 -9 -17 -14 -22 -11 -5 3 -9 2 -8 -3 4 -21 -2 -33 -18 -33 -9 0 -14
-3 -10 -6 3 -4 -37 -50 -91 -103 -132 -131 -192 -182 -203 -175 -5 3 -8 2 -7
-3 4 -13 -64 -83 -74 -77 -4 3 -8 -1 -8 -9 0 -7 -9 -23 -20 -35 -11 -12 -20
-24 -20 -28 0 -4 -11 -17 -26 -30 -14 -13 -21 -24 -17 -24 4 0 3 -4 -3 -8 -5
-4 -18 -24 -27 -44 -10 -21 -22 -38 -27 -38 -6 0 -9 -6 -7 -12 1 -7 -4 -12
-11 -10 -8 1 -11 -1 -8 -6 7 -11 -34 -133 -43 -127 -6 3 -10 -15 -11 -58 -1
-9 -5 -15 -9 -12 -5 2 -7 -7 -5 -20 1 -14 -3 -25 -9 -25 -7 0 -5 -5 3 -10 9
-6 11 -10 3 -10 -7 0 -10 -7 -7 -15 4 -8 2 -15 -3 -15 -4 0 -8 -16 -7 -35 1
-19 -2 -33 -6 -30 -5 3 -12 1 -15 -5 -4 -6 -1 -9 5 -8 7 2 14 -5 15 -15 2 -12
-1 -17 -10 -13 -8 3 -17 0 -21 -6 -4 -6 -3 -8 4 -4 6 3 13 2 17 -4 3 -5 0 -10
-7 -10 -8 0 -6 -5 5 -11 9 -6 15 -15 12 -20 -4 -5 -12 -6 -18 -2 -7 4 -5 -2 3
-12 14 -17 13 -18 -3 -12 -11 4 -16 3 -12 -3 3 -6 13 -10 21 -10 12 0 12 -4 4
-20 -8 -15 -8 -20 2 -20 9 0 9 -3 -2 -10 -8 -5 -10 -10 -5 -10 6 0 12 -16 13
-37 2 -20 6 -41 9 -46 4 -7 -1 -8 -13 -3 -16 6 -15 4 4 -14 19 -18 21 -24 10
-38 -11 -13 -11 -14 1 -7 11 6 13 3 9 -13 -4 -12 -2 -22 4 -22 6 0 7 -7 4 -16
-3 -8 -2 -12 4 -9 6 3 10 -3 10 -15 0 -12 7 -34 15 -50 9 -17 15 -32 15 -35 0
-3 11 -28 25 -57 14 -28 25 -58 25 -67 0 -8 3 -11 6 -8 9 9 43 -55 36 -67 -3
-5 0 -6 7 -2 7 5 16 -4 24 -23 7 -17 16 -28 20 -24 6 6 11 -11 8 -30 0 -4 3
-6 8 -5 5 2 28 -17 52 -43 24 -25 70 -64 101 -88 32 -24 55 -48 51 -54 -3 -6
-1 -7 5 -3 13 8 58 -18 85 -48 10 -12 16 -15 12 -8 -6 10 -3 11 11 3 39 -20
110 -50 136 -56 16 -4 26 -11 23 -15 -3 -5 5 -6 17 -2 11 3 19 1 15 -4 -3 -5
7 -10 21 -10 55 -3 82 -9 82 -17 0 -4 4 -6 9 -3 5 4 12 0 14 -6 4 -10 6 -10 6
0 1 7 5 11 10 8 5 -3 29 -7 54 -7 28 -2 44 -6 40 -12 -4 -6 -1 -7 8 -2 22 14
60 15 52 2 -4 -7 0 -6 10 2 11 9 17 10 17 2 0 -6 5 -11 11 -11 5 0 8 4 5 8 -5
9 29 13 106 15 20 0 35 4 32 9 -3 5 -2 8 3 7 15 -4 103 13 103 20 0 7 23 12
67 15 11 0 19 4 17 7 -2 4 4 10 14 14 29 13 42 14 42 2 1 -7 7 -1 15 13 8 14
14 21 15 16 0 -6 6 -1 14 9 8 11 19 16 30 12 10 -4 16 -1 16 8 0 8 4 15 9 15
6 0 8 -9 6 -20 -2 -12 0 -18 6 -15 5 4 7 11 4 16 -7 11 44 61 55 54 4 -3 11 2
14 11 4 9 13 14 22 10 8 -3 13 -2 10 2 -2 4 -1 14 5 22 7 13 9 13 9 0 1 -9 5
-6 10 7 5 13 16 23 25 23 8 0 14 3 13 8 -3 6 14 26 85 103 10 11 22 17 27 14
6 -4 10 -1 10 4 0 6 -5 11 -12 11 -6 0 -1 8 10 19 12 10 22 23 22 29 0 6 7 17
15 26 19 18 87 156 104 209 8 24 17 35 24 30 8 -4 7 -1 -1 9 -9 11 -10 18 -2
23 6 3 7 11 4 17 -5 7 -1 9 9 5 9 -3 19 -2 22 4 4 5 1 8 -7 7 -7 -2 -14 7 -16
19 -2 13 1 23 7 23 6 0 7 7 4 17 -5 12 -3 14 8 8 10 -6 11 -5 3 4 -7 8 -8 31
-2 69 10 67 6 262 -4 262 -5 0 -8 5 -8 11 0 5 4 8 8 5 4 -2 8 4 8 14 0 10 -3
18 -6 18 -19 -2 -23 4 -10 13 11 8 12 12 2 16 -6 2 -10 9 -6 14 3 5 0 9 -7 9
-8 0 -7 5 2 17 8 9 9 14 3 10 -7 -4 -16 10 -24 36 -6 23 -17 48 -22 55 -7 8
-7 16 0 25 8 9 8 17 0 27 -8 12 -9 12 -4 -2 3 -10 1 -18 -4 -18 -5 0 -12 16
-16 35 -3 19 -11 35 -16 35 -6 0 -8 9 -5 20 3 10 1 18 -4 17 -5 -1 -17 12 -27
28 -9 17 -21 33 -26 36 -5 4 -5 12 -1 19 5 8 4 11 -2 7 -6 -4 -17 1 -24 10
-12 15 -12 16 4 10 11 -4 16 -3 12 3 -3 6 -15 10 -26 10 -10 0 -19 5 -19 10 0
18 -4 25 -37 55 -32 29 -45 54 -21 39 7 -4 8 -3 4 5 -4 6 -12 9 -17 5 -6 -3
-19 2 -28 12 -10 11 -37 34 -60 52 -22 19 -39 38 -36 42 3 5 0 12 -6 16 -8 4
-9 3 -5 -4 11 -19 -2 -14 -24 8 -11 11 -20 25 -20 32 0 6 -3 9 -6 5 -8 -8 -54
34 -48 44 3 5 -2 6 -10 3 -9 -3 -16 -2 -16 4 0 5 -23 33 -50 61 -29 29 -48 57
-44 63 4 6 3 8 -4 4 -6 -3 -17 1 -24 9 -7 9 -18 22 -25 29 -7 8 -9 16 -6 20 4
3 1 6 -6 6 -7 0 -9 5 -5 12 4 6 3 8 -3 5 -11 -7 -93 91 -93 111 0 7 -4 12 -10
12 -5 0 -10 7 -10 15 0 8 -4 15 -8 15 -8 0 -24 27 -32 55 -2 6 -10 16 -17 24
-8 7 -17 26 -20 42 -3 16 -9 26 -14 23 -5 -3 -9 -1 -9 5 0 5 6 12 13 14 6 3 3
6 -7 6 -11 1 -17 4 -13 7 3 4 0 13 -8 20 -8 8 -12 21 -9 29 4 8 1 15 -4 15 -6
0 -14 16 -18 35 -3 19 -11 38 -16 41 -5 3 -1 13 9 21 10 8 13 12 7 9 -7 -3
-17 1 -24 9 -10 12 -10 15 1 15 10 0 10 3 1 12 -7 7 -12 22 -12 35 0 23 -14
31 -24 15z"/>
<path d="M1416 2678 c3 -5 10 -6 15 -3 13 9 11 12 -6 12 -8 0 -12 -4 -9 -9z"/>
<path d="M1655 2571 c-3 -5 -2 -12 3 -15 5 -3 9 1 9 9 0 17 -3 19 -12 6z"/>
<path d="M1695 2499 c-4 -6 -5 -12 -2 -15 2 -3 7 2 10 11 7 17 1 20 -8 4z"/>
<path d="M1740 2405 c0 -2 6 -8 13 -14 10 -8 14 -7 14 2 0 8 -6 14 -14 14 -7
0 -13 -1 -13 -2z"/>
<path d="M997 2099 c7 -7 15 -10 18 -7 3 3 -2 9 -12 12 -14 6 -15 5 -6 -5z"/>
<path d="M2033 2095 c0 -8 4 -12 9 -9 5 3 6 10 3 15 -9 13 -12 11 -12 -6z"/>
<path d="M955 2071 c-3 -5 -2 -12 3 -15 5 -3 9 1 9 9 0 17 -3 19 -12 6z"/>
<path d="M937 2036 c-4 -10 -1 -13 8 -9 8 3 12 9 9 14 -7 12 -11 11 -17 -5z"/>
<path d="M2331 1794 c0 -11 3 -14 6 -6 3 7 2 16 -1 19 -3 4 -6 -2 -5 -13z"/>
<path d="M656 1753 c-6 -14 -5 -15 5 -6 7 7 10 15 7 18 -3 3 -9 -2 -12 -12z"/>
<path d="M535 1551 c-3 -5 -2 -12 3 -15 5 -3 9 1 9 9 0 17 -3 19 -12 6z"/>
<path d="M2575 1141 c-3 -5 -2 -12 3 -15 5 -3 9 1 9 9 0 17 -3 19 -12 6z"/>
<path d="M2550 1046 c0 -2 7 -7 16 -10 8 -3 12 -2 9 4 -6 10 -25 14 -25 6z"/>
<path d="M2550 1021 c0 -6 4 -13 10 -16 6 -3 7 1 4 9 -7 18 -14 21 -14 7z"/>
<path d="M536 722 c-3 -5 1 -9 9 -9 8 0 12 4 9 9 -3 4 -7 8 -9 8 -2 0 -6 -4
-9 -8z"/>
<path d="M855 320 c3 -5 8 -10 11 -10 2 0 4 5 4 10 0 6 -5 10 -11 10 -5 0 -7
-4 -4 -10z"/>
<path d="M895 289 c-4 -6 -5 -12 -2 -15 2 -3 7 2 10 11 7 17 1 20 -8 4z"/>
<path d="M2085 260 c-3 -6 1 -7 9 -4 18 7 21 14 7 14 -6 0 -13 -4 -16 -10z"/>
<path d="M1916 158 c3 -5 10 -6 15 -3 13 9 11 12 -6 12 -8 0 -12 -4 -9 -9z"/>
<path d="M1825 140 c-3 -6 1 -7 9 -4 18 7 21 14 7 14 -6 0 -13 -4 -16 -10z"/>
</g>
</svg>
