<?xml version="1.0" encoding="utf-8"?>
<!-- Generator: Adobe Illustrator 22.0.1, SVG Export Plug-In . SVG Version: 6.00 Build 0)  -->
<svg version="1.1" id="Layer_1" xmlns="http://www.w3.org/2000/svg" xmlns:xlink="http://www.w3.org/1999/xlink" x="0px" y="0px"
	 viewBox="0 0 87.3 74.8" style="enable-background:new 0 0 87.3 74.8;" xml:space="preserve">
<style type="text/css">
	.st0{fill:none;stroke:#383330;stroke-width:1.7;stroke-linecap:round;stroke-linejoin:round;stroke-miterlimit:10;}
</style>
<g id="XMLID_2169_">
	<g id="XMLID_2186_">
		<g id="XMLID_2187_">
			<g id="XMLID_2189_">
				<path id="XMLID_2194_" class="st0" d="M18.1,57.3c-1.1-2-2.3-3.9-3.4-6l-8.1-9.9c1.6-1.8,4.2-2.2,6.3-0.9
					c3.3,2.2,10.7,8.9,10.7,8.9c0.7,0.1,1.7,0.2,2.8,0.6c5.5,1.6,8.6,5.7,9.6,6.8c1.1,1.5,1.9,3,2.5,4.4c1.2,2.9,1.4,6.1,0.8,9.2
					c-0.2,0.9-0.3,1.9-0.5,2.9"/>
				<path id="XMLID_2193_" class="st0" d="M7.3,37.9l-0.8-8.5c0-2.1,0.6-5-0.2-6.4c-0.6-1-1.5-1.9-2.6-2.2c-0.5-0.2-0.9-0.2-0.9,0.2
					L1.3,38.5c0,2.3,1,8.1,1.7,11.6c0.3,1.9,1.3,3.6,2.7,4.9l13.5,13c1.3,1,2.6,2.9,3.5,5.4"/>
				<path id="XMLID_2192_" class="st0" d="M11.3,35.7L10.8,31c0-2.3,0.1-5.3,0.1-7.8c0-0.6-0.1-1.2-0.3-1.7
					c-0.1-0.1-0.2-0.3-0.2-0.5c-0.3-0.9-1-1.6-2-2c-0.1-0.1-0.2-0.1-0.2-0.1c-0.7-0.2-1.4,0.3-1.4,1v2.6"/>
				<path id="XMLID_2191_" class="st0" d="M12.5,23.3c0,0,3.7-1.2,2.8,9.1l0.9,4.3"/>
				<path id="XMLID_2190_" class="st0" d="M39.1,62.6"/>
			</g>
			<path id="XMLID_2188_" class="st0" d="M16.7,27.5c0,0,2.3,1.2,3.1,4.1l0.7,6l2.7,6.1"/>
		</g>
	</g>
	<g id="XMLID_2177_">
		<g id="XMLID_2178_">
			<g id="XMLID_2180_">
				<path id="XMLID_2185_" class="st0" d="M69.3,57.3c1.1-2,2.3-3.9,3.4-6l8.1-9.9c-1.6-1.8-4.2-2.2-6.3-0.9
					c-3.3,2.2-10.7,8.9-10.7,8.9C63,49.5,62,49.7,60.9,50c-5.5,1.6-8.6,5.7-9.6,6.8c-1.1,1.5-1.9,3-2.5,4.4
					c-1.2,2.9-1.4,6.1-0.8,9.2c0.2,0.9,0.3,1.9,0.5,2.9"/>
				<path id="XMLID_2184_" class="st0" d="M80.1,37.9l0.8-8.5c0-2.1-0.6-5,0.2-6.4c0.6-1,1.4-1.8,2.6-2.2c0.5-0.2,0.9-0.2,0.9,0.2
					L86,38.6c0,2.3-1,8.1-1.7,11.6c-0.3,1.9-1.3,3.6-2.7,4.9l-13.5,13c-1.3,1-2.6,2.9-3.5,5.4"/>
				<path id="XMLID_2183_" class="st0" d="M76.1,35.7l0.5-4.8c0-2.3-0.1-5.3-0.1-7.8c0-0.6,0.1-1.2,0.3-1.7c0.1-0.2,0.2-0.3,0.2-0.5
					c0.3-0.9,1-1.6,2-2c0.1-0.1,0.2-0.1,0.2-0.1c0.7-0.2,1.4,0.3,1.4,1v2.6"/>
				<path id="XMLID_2182_" class="st0" d="M74.9,23.3c0,0-3.7-1.2-2.8,9.1l-0.9,4.3"/>
				<path id="XMLID_2181_" class="st0" d="M48.3,62.6"/>
			</g>
			<path id="XMLID_2179_" class="st0" d="M70.7,27.5c0,0-2.3,1.2-3.1,4.1l-0.7,6l-2.7,6.1"/>
		</g>
	</g>
</g>
<path class="st0" d="M9.4,63.6c-1.1,2.6-1.9,6.9-1.2,9.9"/>
<path class="st0" d="M8.5,1.3c0,6.5,1.5,12,5.5,18.1"/>
<path class="st0" d="M79,1.3c0,6.5-1.5,12-5.5,18.1"/>
<path class="st0" d="M77.9,63.6c1.1,2.6,1.9,6.9,1.2,9.9"/>
<circle class="st0" cx="43.7" cy="40.5" r="2.6"/>
</svg>
