<?xml version="1.0" encoding="utf-8"?>
<!-- Generator: Adobe Illustrator 22.0.1, SVG Export Plug-In . SVG Version: 6.00 Build 0)  -->
<svg version="1.1" id="Layer_1" xmlns="http://www.w3.org/2000/svg" xmlns:xlink="http://www.w3.org/1999/xlink" x="0px" y="0px"
	 viewBox="0 0 170 170" style="enable-background:new 0 0 170 170;" xml:space="preserve">
<style type="text/css">
	.st0{opacity:0;fill:#FFFFFF;}
	.st1{fill:#383330;}
</style>
<rect class="st0" width="170" height="170"/>
<g>
	<g>
		<path class="st1" d="M85.4,121.2c-26,0-47.2-21.2-47.2-47.2c0-26,21.2-47.2,47.2-47.2c26,0,47.2,21.2,47.2,47.2
			C132.6,100.1,111.4,121.2,85.4,121.2z M85.4,32.8c-22.7,0-41.2,18.5-41.2,41.2c0,22.7,18.5,41.2,41.2,41.2
			c22.7,0,41.2-18.5,41.2-41.2C126.6,51.3,108.1,32.8,85.4,32.8z"/>
	</g>
	<g>
		<path class="st1" d="M37.2,122c-19.5,0-35.4-15.9-35.4-35.4s15.9-35.4,35.4-35.4c2.6,0,5.1,0.3,7.6,0.8c1.6,0.4,2.6,2,2.3,3.6
			c-0.4,1.6-2,2.6-3.6,2.3c-2.1-0.5-4.2-0.7-6.3-0.7C21,57.3,7.8,70.5,7.8,86.7S21,116,37.2,116c7.3,0,14.3-2.7,19.7-7.6
			c1.2-1.1,3.1-1,4.2,0.2c1.1,1.2,1,3.1-0.2,4.2C54.4,118.8,46,122,37.2,122z"/>
	</g>
	<g>
		<path class="st1" d="M98.5,170H72.2c-1,0-1.9-0.5-2.4-1.3c-0.6-0.8-0.7-1.8-0.4-2.7c6.7-19.2,6.8-36.4,5.7-47.4
			c-0.2-1.6,1-3.1,2.7-3.3c1.6-0.2,3.1,1,3.3,2.7c1.1,10.9,1,27.4-4.7,46h18.4c-2.4-11.6-5.6-30.1-5.2-45.7c0-1.6,1.4-2.9,3-2.9
			c0,0,0.1,0,0.1,0c1.7,0,3,1.4,2.9,3.1c-0.5,16.7,3.4,37.2,5.8,47.9c0.2,0.9,0,1.8-0.6,2.5C100.2,169.6,99.4,170,98.5,170z"/>
	</g>
	<g>
		<path class="st1" d="M47.5,170H28.3c-0.9,0-1.8-0.4-2.4-1.2c-0.6-0.7-0.8-1.7-0.5-2.6c4.9-18.9,5-35.8,4.2-46.7
			c-0.1-1.7,1.1-3.1,2.8-3.2c1.7-0.1,3.1,1.1,3.2,2.8c0.8,10.6,0.7,26.7-3.5,44.8h11.9c-1.8-11.3-4.1-29.4-3.8-44.7
			c0-1.7,1.4-3,3.1-2.9c1.7,0,3,1.4,2.9,3.1c-0.4,16.4,2.5,36.5,4.3,47c0.1,0.9-0.1,1.8-0.7,2.4C49.2,169.6,48.4,170,47.5,170z"/>
	</g>
	<g>
		<path class="st1" d="M132.8,122c-8.8,0-17.2-3.2-23.7-9.1c-1.2-1.1-1.3-3-0.2-4.2c1.1-1.2,3-1.3,4.2-0.2
			c5.4,4.9,12.4,7.6,19.7,7.6c16.2,0,29.4-13.2,29.4-29.4S149,57.3,132.8,57.3c-2.1,0-4.3,0.2-6.3,0.7c-1.6,0.4-3.2-0.7-3.6-2.3
			c-0.4-1.6,0.7-3.2,2.3-3.6c2.5-0.5,5-0.8,7.6-0.8c19.5,0,35.4,15.9,35.4,35.4S152.3,122,132.8,122z"/>
	</g>
	<g>
		<path class="st1" d="M141.7,170h-19.2c-0.9,0-1.7-0.4-2.3-1.1c-0.6-0.7-0.8-1.6-0.7-2.4c1.8-10.5,4.6-30.6,4.3-47
			c0-1.7,1.3-3,2.9-3.1c1.6,0,3,1.3,3.1,2.9c0.3,15.2-2,33.4-3.8,44.7h11.9c-4.2-18.1-4.2-34.3-3.5-44.8c0.1-1.7,1.5-2.9,3.2-2.8
			c1.7,0.1,2.9,1.6,2.8,3.2c-0.8,10.9-0.7,27.8,4.2,46.7c0.2,0.9,0,1.9-0.5,2.6C143.5,169.6,142.7,170,141.7,170z"/>
	</g>
</g>
</svg>
