<?xml version="1.0" encoding="utf-8"?>
<!-- Generator: Adobe Illustrator 19.1.0, SVG Export Plug-In . SVG Version: 6.00 Build 0)  -->
<svg version="1.1" id="Layer_1" xmlns="http://www.w3.org/2000/svg" xmlns:xlink="http://www.w3.org/1999/xlink" x="0px" y="0px"
	 viewBox="0 0 115.3 169" style="enable-background:new 0 0 115.3 169;" xml:space="preserve">
<style type="text/css">
	.st0{fill:none;stroke:#383330;stroke-width:3;stroke-linecap:round;stroke-linejoin:round;stroke-miterlimit:10;}
</style>
<g id="XMLID_16_">
	<g id="XMLID_636_">
		<path id="XMLID_646_" class="st0" d="M29.3,27.6c-4.5,0.4-7-1.8-8-3.2c0,0,0,0,0,0"/>
		<path id="XMLID_645_" class="st0" d="M43.1,5.8c0.2-0.1,3.5-1.9,6.6-0.1c2.4,1.4,3,3.9,3,4.5c0.1,1.4,0,3.3-0.9,5.1
			c-1.1,2.3-2,4.8-2.3,7.3c-0.3,3-0.5,6.8-0.1,9.9c0.4,0,1,0,1.7,0.2c0.8,0.2,1.4,0.6,1.8,0.9"/>
		<path id="XMLID_644_" class="st0" d="M57.3,12c1.1-0.1,2.3,0.1,3.5,0.7c2.3,1.2,3,4.3,3,4.5c0.1,0.5,0.3,1.8-0.4,4.5
			c-1.1,4-2.7,4.8-3.7,7.8c-0.5,1.5-0.9,3.8-0.3,6.9c0.3,0.1,0.9,0.2,1.4,0.6c0.5,0.4,0.9,0.8,1,1.1"/>
		<path id="XMLID_643_" class="st0" d="M68.1,21.6c1.2,0.1,2.4,0.6,3.3,1.5c0.7,0.7,1,1.5,1.2,2.1c1,2.8-0.3,5.3-1.6,7.7
			c-1.5,2.7-2.4,5.6-2.5,8.6c0.2,0.1,0.4,0.2,0.7,0.3c0.5,0.3,0.8,0.7,1,1"/>
		<path id="XMLID_611_" class="st0" d="M43,30.5c-0.4-0.3-1.1-0.8-2.1-1.1c-1.9-0.6-2.9,0.2-3.5-0.4c-0.8-0.8,0.1-2.8,1.1-6.6
			c0,0,0.8-2.1,1.1-5.2c0.5-6.1-0.8-13.6-7.7-15.4c-5.2-1.4-11.2,1-12.7,6.5c-1.1,4.1-0.3,8.7,0.8,12.8c0.3,1.2,0.8,2.2,1.3,3.3
			c0,0.1,0.1,0.2,0.1,0.3c2.3,4.5,0.2,9,0.2,9c-8.3,14.1-4,28.8,1.1,43.1c1.1,3.1,2.2,6.2,3.2,9.4c0.8,2.4,1.5,4.8,2.1,7.2
			c0.8,3.2,1.5,6.4,2,9.7c0.1,0.5,0.2,1,0.2,1.6c0.7,5.2,0.5,10.2-0.1,15.2"/>
		<path id="XMLID_616_" class="st0" d="M28.5,155c0.9,2.2,2.1,4.2,3.8,6c7.3,7.7,18.1,6.4,18.8,6.4c5.2-0.2,10-2.8,13.4-6.8
			c4.2-4.9,5.1-10.7,5.6-17c1.1-12.5,0.5-18,1.9-30.5"/>
		<path id="XMLID_613_" class="st0" d="M76.9,79.9c1.4-8.1,1.2-7.4,3.1-15.4c0,0,0,0,0,0c1.4-6.2,0.1-12.7-3.5-17.8l-0.1-0.1
			c-1.1-1.7,0.2-3.8,1.2-5.1c1.2-1.4,1.9-3.2,2-5c0-0.6,0.1-2-0.8-3.3c-0.7-1.1-1.6-1.6-2.1-1.8"/>
	</g>
	<g id="XMLID_530_">
		<path id="XMLID_609_" class="st0" d="M107.8,117.1c-2.8-14.5,0.8-28.2,0.7-42.7l5.2-21.5c0.3-1.1-0.3-2.3-1.3-2.8
			c-1.3-0.6-2.8,0-3.3,1.3l-6.3,13.8"/>
		<path id="XMLID_614_" class="st0" d="M80,64.4c1,2,2,3.6,3.2,6.7L83,82.9c-0.2,3-2.5,5.4-5.5,5.8c-0.7,0.1-1.4,0.1-2.1-0.1
			c-0.5-0.1-1-0.3-1.5-0.5c-2.3-1.6-4.6-3.3-6.9-4.9c-3.3-2.4-7.5-6.4-11.9-4.2c-0.5,0.2-3.9,2.8-3.3,3.2c3.5,3,7.6,5.5,10.7,8.9
			c4.2,4.6,6,10.5,10.2,15c0.6,0.7,1.3,1.3,2,1.9c4.7,3.8,10.2,6.6,12.5,12.5"/>
		<polyline id="XMLID_606_" class="st0" points="79.8,53.6 89.6,66.1 94.8,76.3 		"/>
		<polyline id="XMLID_604_" class="st0" points="81.4,55.6 95.3,61.4 101,71.1 		"/>
	</g>
	<g id="XMLID_601_">
		<path id="XMLID_605_" class="st0" d="M28,93.4l-4.1,14.4l0.8,12.8c0.3,3,2.7,5.4,5.7,5.7c1.2,0.1,2.5-0.1,3.6-0.7
			c2.2-1.7,4.5-3.4,6.7-5.1c3.3-2.5,7.3-6.6,11.8-4.5c0.5,0.2,3.9,2.7,3.4,3.1c-3.8,3.5-8.5,6.6-11.6,10.6c-1.6,2.1-2.6,4.6-3.8,6.8
			c-2,3.7-4.2,7.4-7.4,10.2c-1.7,1.4-3.7,1.9-5.5,3.1c-3,2-4.7,5.3-5.9,8.6l-0.8,4.7"/>
		<path id="XMLID_603_" class="st0" d="M26.1,86.6l-9.6,16.5l-3.8,11.2c0,0-1.4,2.5-2.7,3.7"/>
		<path id="XMLID_602_" class="st0" d="M1.5,160.6c0.4-1.5,1-3.5,1.4-6c1.5-9.3-0.2-26.2-1-32.8c-0.2-1.8,0.1-3.7,0.8-5.3l5.1-11.8
			c1-2.4,2.8-4.4,4.9-5.8l10-6.5"/>
	</g>
	<path id="XMLID_742_" class="st0" d="M46.7,90.1c-1.1-1.6-1.8-3.5-2-5.5c-0.8-6.8,4.1-13,10.9-13.8c1.5-0.2,3.1-0.1,4.5,0.3"/>
</g>
</svg>
