<?xml version="1.0" encoding="utf-8"?>
<!-- Generator: Adobe Illustrator 22.0.1, SVG Export Plug-In . SVG Version: 6.00 Build 0)  -->
<svg version="1.1" id="illustrator_vorlage_xA0_Image_1_"
	 xmlns="http://www.w3.org/2000/svg" xmlns:xlink="http://www.w3.org/1999/xlink" x="0px" y="0px" viewBox="0 0 1314.5 1764.3"
	 style="enable-background:new 0 0 1314.5 1764.3;" xml:space="preserve">
<style type="text/css">
	.st0{fill:#C0CC93;stroke:#292827;stroke-width:15;stroke-miterlimit:10;}
	.st1{fill:#D34E4E;}
	.st2{fill:#292827;}
</style>
<g>
	<path class="st0" d="M666.3,1756.8c-70.6,0-131.3-7.5-190.7-24.2c-120.8-33.9-222.1-91.7-304.1-186.4
		c-57.9-66.9-100.4-142.8-128.7-226.7c-15-44.3-25.3-89.7-30.8-136.1c-5.9-50-5.9-100.1-0.8-150.2c5.3-51.7,16.6-101.8,35.3-150.3
		c21-54.4,50.3-103.9,86-149.8c39.5-50.9,84.8-96.2,131.8-140c44.1-41.1,89.1-81.4,132.1-123.7c86.1-84.6,152.1-183.2,200.4-293.8
		c19.4-44.5,35.3-90.2,46.7-137.4c1.7-7.1,2.9-14.4,4.7-21.5c1.2-5.1,2.8-9.7,10-9.1c4.4,0.3,6,2.7,6.9,5.8
		c1.8,6.4,3.1,12.9,4.6,19.4c11.6,51.5,29.2,101,50.6,149.2C775.4,306,854,413,954.1,504.6c54.6,49.9,108.5,100.7,161.1,152.6
		c47.7,47.1,89,99.6,121.4,158.7c23.5,42.9,41.1,88,52.5,135.6c16.9,70.2,21.6,141.3,14.9,212.9c-12.6,133.9-60.3,254.3-143.5,360.1
		c-61.7,78.5-137.9,132-228.7,173.9c-44.2,20.4-90.2,35.1-137.9,44.7C748.8,1752.4,703.3,1756.7,666.3,1756.8z"/>
</g>
<g>
	<path class="st1" d="M1202.9,1110.6c-1.2,22.4-1,45-3.8,67.2c-3.1,24.5-8.4,48.9-13.8,73c-3.2,14.4-8.8,28.3-13.1,42.4
		c-8.6,28.2-21.3,54.7-35,80.6c-4.9,9.2-10.3,18.2-16.1,26.8c-13.4,19.7-26.3,39.9-41,58.6c-18.5,23.6-38.9,45.5-62,64.8
		c-14.6,12.2-29.4,24.4-44.7,35.8c-10.1,7.5-21,14-31.9,20.3c-16.8,9.7-33.5,19.5-50.9,28c-17,8.3-34.5,15.5-52.2,22
		c-14.7,5.5-30,9.4-45,13.9c-1,0.3-2.2,0.1-3.3,0.1c0.8-0.8,1.4-1.9,2.4-2.5c9.2-5.7,18.9-10.5,27.5-17
		c11.1-8.4,21.4-17.9,31.6-27.4c16-14.9,29.8-31.6,41.8-49.9c12.2-18.7,23-38.2,29.7-59.5c4.5-14.3,8.1-29,11.3-43.6
		c4.8-21.4,6.7-43.2,4.9-65.2c-0.9-11.7-1.1-23.6-3.5-35.1c-3.2-15.6-7-31.3-12.6-46.1c-6.6-17.4-14-34.8-23.4-50.8
		c-9-15.4-20.3-29.6-31.8-43.3c-19-22.7-42-41-67.4-56.3c-20.2-12.2-41.7-21.6-64.3-28.4c-11.4-3.4-23-5.8-34.6-8.3
		c-3.8-0.8-2.9-1.8-0.8-3.4c9.9-7.6,19.7-15.2,29.6-22.7c23.2-17.7,46.5-35.3,69.7-53c0.5-0.4,1-0.9,1.5-1.3
		c4.8-2.9,9.7-8.2,14.5-8.1c5.1,0.1,10,5.2,15,8.2c25.1,15,47.8,33.2,68.1,54.2c26,26.8,47.5,56.8,62.9,90.9
		c7.4,16.5,14.5,33.4,19.7,50.7c4.9,16.6,7.1,34,10.5,51c0.7,3.4,1,6.9,1.9,10.2c0.3,1,1.9,1.7,2.9,2.4c0.1,0.1,0.3-0.1,0.5-0.1
		c9.9-0.7,10.4-0.8,9.3-11.1c-1.2-10.8-2.9-21.7-5.6-32.2c-5-19.1-9.8-38.4-16.8-56.8c-6.3-16.7-14.6-32.8-23.6-48.3
		c-18.4-31.8-41.5-60.2-69.1-84.5c-30.3-26.8-63.9-48.9-101.9-63.6c-15.9-6.1-31.9-12-48.4-16.1c-16.2-4-32.9-6-49.5-8.2
		c-5-0.7-7.4-1.2-7.2-7.4c0.4-14.8-0.6-29.6-0.6-44.4c0-15.4,0.6-30.8,0.6-46.2c0-3.2,1.2-3.9,3.7-3.6c12.5,1.6,24.9,3.2,37.4,5.1
		c7.5,1.2,15,2.5,22.3,4.6c15.2,4.3,30.5,8.3,45.2,14c18.1,7,36.1,14.6,53.1,23.8c27.4,14.8,52.7,32.8,75.8,53.8
		c24,21.8,44.7,46.3,63.2,72.9c14.1,20.4,25,42.3,35.3,64.7c1.8,4,3.4,4.3,7,2.2c8.7-5,8.5-4.6,3.8-13.5
		c-6.5-12.2-11.8-25-18.7-36.9c-7.6-13-16-25.6-24.9-37.8c-9-12.3-18.6-24.3-28.8-35.6c-17.4-19.3-36.8-36.3-57.7-51.8
		c-19.1-14.3-39.3-26.7-60.5-37.5c-20.1-10.3-40.8-19.2-62.7-25c-10.8-2.9-21.3-6.6-32.1-9.4c-7.3-1.9-14.9-3.2-22.4-4.2
		c-11.8-1.6-23.7-2.7-35.5-4.1c-4.8-0.6-3.7-4.4-3.7-7.4c0.1-8,0.7-15.9,0.7-23.9c0.1-24.1,0.1-48.3,0-72.4c0-3.5,1.6-3.9,4.3-3.6
		c10,1.2,20.1,2.1,30.1,3.8c14.3,2.3,28.7,4.6,42.8,8c34.6,8.4,68.3,19.4,99.6,36.6c19,10.4,38.5,20.5,55.9,33.2
		c21,15.3,40.5,32.8,59.9,50.2c10.6,9.5,19.9,20.5,29.1,31.5c17.6,20.8,34.1,42.5,46.5,66.8c10.6,20.8,20.3,42,30.2,63.2
		c2.4,5.1,4,10.5,5.8,15.8c1.2,3.5,3,5.1,6.6,2.8c1.4-0.9,3-1.6,4.5-2c3.7-0.8,3.9-3,2.8-6c-12.4-34.5-27.1-67.9-47.6-98.3
		c-14.8-22-30.4-43.8-48-63.5c-16.9-18.9-36.2-35.8-55.6-52.2c-15.3-12.9-31.9-24.4-48.8-35.2c-23.8-15.2-49-28.1-75.6-37.7
		c-16.5-6-33-12-49.9-16.7c-14.3-4-29.1-6.3-43.8-8.9c-12.4-2.2-24.8-3.8-37.2-5.7c-3.8-0.6-9.3,0.3-11.1-1.9
		c-2-2.3-0.7-7.5-0.7-11.5c-0.1-18.6-0.1-37.2-0.2-55.8c0-1.2,0-2.3-0.3-3.5c-0.5-2.9,0.6-4.1,3.5-3.8c11.1,1,22.2,1.7,33.2,3.2
		c14.1,2,28.2,4.1,42.1,7.2c14.6,3.2,29.2,6.9,43.4,11.8c20.4,7.1,40.6,14.9,60.5,23.5c26.1,11.3,50.4,26,74,42
		c32.1,21.8,61.1,47.2,86.9,75.9c15,16.6,28.9,34.4,41.5,52.9c13.5,19.8,26.1,40.5,36.8,61.9c10.5,21.1,18.3,43.6,27.1,65.6
		c2.3,5.8,3.8,12,6.1,17.9c0.5,1.3,2.8,2.7,4.3,2.6c2.7-0.2,5.6-1,8-2.3c1.1-0.6,1.9-3.2,1.6-4.4c-7.6-25.4-16.8-50.2-27.9-74.4
		c-14-30.3-31-58.8-50.4-85.7c-18.6-25.8-39.5-49.7-62.9-71.3c-5.1-4.7-10.5-9.2-15.2-14.2c-1.9-2.1-3.4-5.4-3.5-8.3
		c-0.3-22.1-0.2-44.3-0.2-66.4c0-1.5,0.6-3.1,1-4.6c1.4,0.8,3,1.3,4.1,2.3c19.7,18.1,40.1,35.5,58.7,54.8
		c14.6,15.1,27.4,32.1,39.9,49.1c11.4,15.5,22.1,31.6,31.5,48.3c10.6,18.9,20.4,38.4,28.9,58.4c8.8,20.9,16.5,42.5,23.1,64.3
		c5.5,18.3,8.7,37.3,12.9,56c5.4,24.3,7.2,48.9,7.9,73.7C1201.8,1099.6,1202.5,1105,1202.9,1110.6z"/>
	<path class="st1" d="M625.8,798.8c0,16.2-0.1,32.3,0,48.5c0,3.5-1.1,5-4.8,5.3c-24.3,2-48.1,6.7-71.8,12.5
		c-29.2,7.2-56.8,18.4-83.6,31.5c-16.4,8-32.2,17.9-46.8,28.9c-21.3,16.2-41.6,33.9-61.6,51.8c-7.6,6.8-13.2,15.7-19.9,23.5
		c-14.5,16.8-27.2,34.7-37.9,54.1c-8.3,15.1-16,30.6-23.7,46c-0.6,1.2,0.1,4,1.2,4.9c6.9,5.8,10.6,4.8,14.5-3.2
		c6.8-13.8,13.2-28,20.8-41.3c6.2-10.9,13.8-21,21.4-31c9.1-12.1,18.2-24.2,28.4-35.3c20.5-22.3,42.5-42.9,68.3-59.2
		c10.7-6.7,21.1-13.9,32.2-19.7c16.4-8.5,33.1-16.7,50.2-23.8c13.3-5.5,27.2-9.4,41.1-13.1c14.9-3.9,30.1-6.9,45.3-9.7
		c7.5-1.4,15.2-1.8,22.8-2.1c1.2-0.1,3.7,2.2,3.7,3.4c-0.1,21-0.6,42-0.7,62.9c-0.1,9.5,0.4,19,0.9,28.4c0.2,4.1-1.2,5.8-5.5,6.4
		c-15.2,2.3-30.4,5-45.5,7.8c-32.3,6.1-62.3,18.6-90.9,34.3c-23.6,12.9-45.9,28-65.4,46.8c-10.7,10.3-21.8,20.3-31.4,31.6
		c-16.7,19.6-31.9,40.5-43.9,63.3c-9.9,18.9-18.8,38.2-24.6,58.9c-2.8,9.9-6.6,19.4-9.1,29.3c-2.2,8.6-3.3,17.5-4.6,26.2
		c-0.9,5.7-1.4,11.5-2.1,17.3c-0.9,8.3,6.4,3.9,9.6,5.7c0.5,0.3,4.3-3.1,4.7-5.2c1.8-9.1,2.6-18.4,4.3-27.5
		c1.7-8.9,3.6-17.8,6.1-26.5c3.5-11.7,7.3-23.3,11.6-34.7c9.4-24.8,23-47.4,37.8-69.4c12.2-18.2,25.5-35.5,41.9-49.7
		c18.5-16.1,38.5-30.5,58.1-45.3c4.8-3.6,10.6-6.1,16.2-8.6c1.7-0.8,4.9-0.5,6.4,0.6c15.8,11.6,31.4,23.4,46.9,35.2
		c12.5,9.5,25,19.2,37.5,28.8c8.6,6.6,17.1,13.1,25.7,19.7c0.7,0.6,1.3,1.4,1.9,2.1c-0.6,0.4-1.2,0.9-1.9,1.1
		c-10.9,2.8-21.8,5.4-32.7,8.3c-22.8,6.1-44.1,15.9-64.6,27.4c-32.1,18-59.1,41.9-80.9,71.4c-10.2,13.8-19,28.7-27.9,43.5
		c-10.3,17-16.3,35.7-21.8,54.6c-7.8,26.6-10.8,53.9-10.5,81.5c0.1,14.5,2.6,29,4.6,43.5c1.5,10.6,3.3,21.3,6.5,31.4
		c4.4,13.7,9.1,27.5,15.7,40.2c9.7,18.4,20.4,36.6,32.5,53.6c12.6,17.7,27.9,33.6,45.6,46.5c14.7,10.7,30.2,20.3,45.4,30.4
		c1.1,0.7,2,1.6,3,2.4c-1.2-0.1-2.4-0.1-3.6-0.4c-25.1-6.5-50-13.3-73.5-24.4c-22.8-10.7-45.9-21-67.8-33.3
		c-18.8-10.5-36.8-22.8-53.8-35.9c-19.5-15.1-38.6-31.2-56.1-48.7c-17.9-17.9-34.5-37.4-50.1-57.5c-13.3-17.1-24.8-35.7-36.3-54.1
		c-16.6-26.6-29.6-55-40.1-84.4c-8.6-24.1-15.5-48.8-22.1-73.5c-3.4-12.7-4.5-26.1-6.4-39.2c-2-14.3-4.4-28.5-5.3-42.9
		c-1-16.4-1.2-33-0.6-49.5c0.6-17.9,1.8-35.9,4.2-53.7c2.7-20,6.4-40,11.1-59.7c4.6-19.4,10.1-38.7,16.6-57.6
		c5.2-15.3,11.7-30.2,18.9-44.7c10.9-22,21.3-44.4,34.7-64.9c17.8-27.4,36.5-54.5,60.1-77.4c19.2-18.6,39.2-36.3,58.9-54.4
		c0.8-0.7,1.9-1,2.8-1.5c0.2,1.1,0.6,2.2,0.6,3.3c0.1,23.2,0.2,46.3,0,69.5c0,2.2-1.8,4.9-3.6,6.6c-10.5,10.4-21.9,19.9-31.8,30.9
		c-15.2,16.9-30.5,33.9-43.8,52.2c-14.5,20.1-27.7,41.5-39.8,63.1c-9.6,17.1-17.2,35.4-24.9,53.5c-5.8,13.8-10.5,28.2-15.4,42.4
		c-0.9,2.5-2.9,6.5,1.8,7.9c10.9,3.3,10.7,3.1,12.6-3.4c10.2-33.4,22.5-65.8,39.6-96.4c12-21.4,24.3-42.7,40.3-61.6
		c13.1-15.6,25.1-32.1,38.9-47.1c10.7-11.7,23.1-22,35.3-32.3c13.6-11.5,26.9-23.4,41.8-33c23.5-15.2,47.7-29.5,72.6-42.4
		c24.5-12.7,51-20.9,77.5-28.5c17.8-5.1,36-8.9,54.2-12.1c16.1-2.8,32.6-4,48.9-6c3.7-0.5,5,0.7,5,4.6c-0.3,21.5-0.4,42.9-0.3,64.4
		c0,5.1-1.8,6.7-6.9,7.3c-20.8,2.8-41.7,5.8-62.4,9.5c-34.7,6.2-67.2,19.3-99.7,32.6c-30.2,12.3-56.2,31.2-82.5,49.7
		c-21.1,14.9-40.4,31.9-58.3,50.6c-18,18.9-35.4,38.4-49.7,60.3c-10.8,16.7-22.4,33.1-31.3,50.8c-10.1,19.8-17.6,40.8-26.2,61.3
		c-0.5,1.1-1,2.1-1.4,3.2c-1,3-1.5,5.7,3,6c0.8,0,1.5,0.5,2.3,0.9c6.1,2.6,6.6,2,9.2-4c8.3-19.3,16.8-38.6,25.7-57.7
		c10.3-22.1,23-42.7,37.9-61.9c9.3-12,18.9-23.9,28.8-35.5c6.8-8,13.8-15.8,21.6-22.8c14.2-12.9,28.6-25.7,43.8-37.5
		c24.8-19.3,51.8-35.1,80.1-48.6c23.5-11.2,48.1-19.7,73.3-26.7c25.4-7.1,51-12.6,77.4-13.8c3.3-0.2,6.5-1.2,9.8-1.8
		c4.1-0.7,6,0.3,5.9,5.1C625.6,766.5,625.8,782.7,625.8,798.8L625.8,798.8z"/>
</g>
<g>
	<path class="st2" d="M640.4,813.3c0,52.6,0,105.3,0,157.9c0,10.5,0,10.4-10.4,11c-40.4,2.5-78.9,12.1-115.5,29.4
		c-3.2,1.5-3.2,2.6-0.5,4.7c42.7,32.5,85.4,65,128.1,97.6c2.4,1.9,4.6,4.2,6.8,6.2c-3.2,0.7-6.3,1.8-9.5,1.9
		c-37.5,2-72.9,12.3-106.4,28.6c-21.4,10.4-40.4,24.8-58.4,40.6c-20.5,18-37.1,39-51.3,62c-10.7,17.4-18.8,36.1-25.1,55.6
		c-8.2,25.6-12.9,51.9-13.4,78.7c-0.2,14.4,1.8,28.8,3.3,43.2c2.5,24.3,9.8,47.3,19.5,69.6c13.3,30.7,31.7,58.1,55.2,81.7
		c23.9,23.9,51,43.8,82.5,56.6c17.3,7,35,13.7,53.2,17.5c31.7,6.7,63.7,8.7,96.1,3c22.2-3.9,44.1-8.2,64.4-17.9
		c16.9-8,33.8-16.4,49.1-27c15.6-10.8,30.1-23.6,43.5-37.2c26.4-26.9,45.6-58.8,57.5-94.6c5.6-17.1,10.7-34.6,13.6-52.4
		c3.5-21.3,3.4-43,1.1-64.7c-2.2-20.1-6-39.6-12.3-58.7c-10.4-31.4-26.1-60-47-85.5c-19.1-23.3-41.5-43-67.2-58.9
		c-24.1-14.9-49.8-26.1-77.2-32.6c-18.2-4.3-37.1-5.8-55.6-8.5c-1.2-0.2-2.3-0.8-3.5-1.2c0.8-0.8,1.5-1.6,2.4-2.2
		c13.8-10.6,27.7-21.2,41.6-31.8c29.2-22.2,58.5-44.4,87.7-66.6c7.4-5.6,7.3-6.5-1-10.1c-27.2-11.8-55.2-20.8-84.8-24.3
		c-10.9-1.3-21.7-2.7-32.6-3.9c-2.9-0.3-4-1.3-4-4.3c0.3-27.1,0.5-54.3,0.5-81.4c0-25.8-0.5-51.6-0.5-77.5
		c0-54.1,0.2-108.3,0.3-162.4c0-4,0.1-8-0.1-12c-0.1-3.4,1.2-4.8,4.7-4.5c17.7,1.8,35.6,2.4,53,5.3c23.8,4,47.7,8.6,71,14.8
		c40.5,10.8,78.9,27.5,114.9,49c21,12.6,40.9,27.2,61.3,40.9c0.9,0.6,2,0.8,3,1.2c0.3-1.2,0.8-2.5,0.8-3.7c0-27.8,0-55.6,0-83.5
		c0-1.5,0.7-3,1-4.6c1.4,0.7,3,1.2,4.3,2.2c34.9,25,66.4,53.9,94.5,86.4c26.5,30.7,49.8,63.9,69.1,99.8
		c24,44.5,41.7,91.3,53.3,140.4c11.7,49.5,16.4,99.6,14.5,150.4c-0.9,23.6-2.6,47.1-7.7,70.2c-5.6,25.4-10.9,50.9-18.3,75.7
		c-6.4,21.7-14.3,43.1-23.7,63.7c-9.1,20-20.2,39.2-31.5,58.1c-21.4,35.8-46.7,68.4-75.5,98.8c-27.9,29.4-59.2,54.3-92.3,77.1
		c-29,19.9-59.7,37.3-92.8,49.7c-24,9-48,18.3-72.5,25.4c-20.4,5.9-41.7,8.8-62.7,12.9c-26.1,5-52.5,6.4-79,6.5
		c-34.1,0.1-68-2.3-101.8-8.3c-35.4-6.2-69.8-15.7-103.3-28.5c-27.6-10.6-54.8-22.3-79.8-38.2c-23.5-15-47-30-69.2-46.8
		c-30.8-23.4-57.9-50.9-82.6-80.8c-20.8-25.2-39.5-51.8-55.7-80.1c-20.5-35.6-37.1-73-48.2-112.7c-6.5-23.1-12.6-46.4-17.3-69.9
		c-3.6-18.2-5.3-36.8-6.5-55.4c-1.3-19.6-1.7-39.2-1.1-58.8c0.6-18.7,2.7-37.4,4.8-56.1c4.8-41.7,15.1-82.2,30.1-121.3
		c9.9-25.9,21.9-51.3,34.8-75.9c16.2-30.9,36.2-59.8,58.9-86.3c18.6-21.7,39.2-41.8,59.9-61.5c13.3-12.7,28.5-23.4,42.9-34.9
		c1.2-0.9,2.9-1.2,4.4-1.8c0.2,1.4,0.5,2.8,0.5,4.3c0.2,27.5,0.3,55,0.5,82.5c0,1.6,0.4,3.2,0.5,4.8c1.6-0.7,3.3-1.1,4.7-2
		c16.1-11.1,31.7-23.1,48.4-33.4c27.5-16.8,56.1-31.7,86.7-42.2c24.1-8.2,48.6-15.8,73.3-21.8c19.3-4.6,39.2-6.6,58.9-9.1
		c10-1.3,20.2-1.3,30.3-2.1c4-0.3,5.5,0.5,5.5,5c0,39,0.3,77.9,0.5,116.9c0.1,17.3,0,34.6,0,52C640.3,813.3,640.4,813.3,640.4,813.3
		z M1202.9,1110.6c-0.4-5.6-1.1-11-1.3-16.5c-0.7-24.8-2.5-49.4-7.9-73.7c-4.1-18.7-7.4-37.7-12.9-56c-6.6-21.8-14.2-43.3-23.1-64.3
		c-8.4-20-18.2-39.5-28.9-58.4c-9.4-16.7-20.2-32.8-31.5-48.3c-12.5-17-25.3-34-39.9-49.1c-18.5-19.2-39-36.6-58.7-54.8
		c-1.1-1-2.8-1.6-4.1-2.3c-0.3,1.5-1,3.1-1,4.6c0,22.1-0.1,44.3,0.2,66.4c0,2.8,1.5,6.2,3.5,8.3c4.7,5.1,10.1,9.5,15.2,14.2
		c23.4,21.6,44.3,45.6,62.9,71.3c19.5,26.9,36.5,55.4,50.4,85.7c11.1,24.1,20.3,48.9,27.9,74.4c0.4,1.3-0.5,3.9-1.6,4.4
		c-2.4,1.3-5.3,2.1-8,2.3c-1.4,0.1-3.8-1.3-4.3-2.6c-2.3-5.9-3.7-12.1-6.1-17.9c-8.8-22-16.5-44.5-27.1-65.6
		c-10.7-21.4-23.3-42.1-36.8-61.9c-12.6-18.5-26.5-36.3-41.5-52.9c-25.9-28.7-54.9-54.1-86.9-75.9c-23.6-16-47.9-30.7-74-42
		c-19.8-8.6-40.1-16.4-60.5-23.5c-14.1-4.9-28.8-8.6-43.4-11.8c-13.9-3.1-28-5.2-42.1-7.2c-11-1.5-22.1-2.1-33.2-3.2
		c-2.9-0.3-4,0.9-3.5,3.8c0.2,1.1,0.2,2.3,0.3,3.5c0.1,18.6,0.1,37.2,0.2,55.8c0,3.9-1.3,9.1,0.7,11.5c1.9,2.2,7.3,1.3,11.1,1.9
		c12.4,1.8,24.9,3.4,37.2,5.7c14.7,2.6,29.5,5,43.8,8.9c16.9,4.7,33.4,10.7,49.9,16.7c26.6,9.7,51.8,22.5,75.6,37.7
		c16.9,10.8,33.5,22.3,48.8,35.2c19.4,16.4,38.7,33.3,55.6,52.2c17.6,19.7,33.2,41.5,48,63.5c20.5,30.4,35.2,63.9,47.6,98.3
		c1.1,2.9,0.9,5.2-2.8,6c-1.6,0.3-3.2,1.1-4.5,2c-3.7,2.3-5.4,0.8-6.6-2.8c-1.8-5.3-3.4-10.8-5.8-15.8
		c-9.9-21.1-19.6-42.4-30.2-63.2c-12.4-24.3-28.9-46-46.5-66.8c-9.2-10.9-18.6-21.9-29.1-31.5c-19.4-17.4-38.8-34.9-59.9-50.2
		c-17.4-12.7-36.9-22.7-55.9-33.2c-31.3-17.2-65-28.3-99.6-36.6c-14.1-3.4-28.5-5.6-42.8-8c-10-1.6-20.1-2.5-30.1-3.8
		c-2.7-0.3-4.3,0.1-4.3,3.6c0.1,24.1,0.1,48.3,0,72.4c0,8-0.6,15.9-0.7,23.9c0,2.9-1.1,6.8,3.7,7.4c11.8,1.4,23.7,2.5,35.5,4.1
		c7.5,1,15.1,2.3,22.4,4.2c10.8,2.8,21.3,6.6,32.1,9.4c21.9,5.8,42.6,14.8,62.7,25c21.2,10.8,41.4,23.2,60.5,37.5
		c20.8,15.6,40.3,32.5,57.7,51.8c10.2,11.3,19.8,23.3,28.8,35.6c8.9,12.2,17.3,24.8,24.9,37.8c6.9,11.9,12.2,24.7,18.7,36.9
		c4.7,8.9,4.9,8.5-3.8,13.5c-3.7,2.1-5.2,1.8-7-2.2c-10.3-22.4-21.2-44.3-35.3-64.7c-18.4-26.7-39.2-51.1-63.2-72.9
		c-23.1-21.1-48.4-39-75.8-53.8c-17-9.2-35.1-16.8-53.1-23.8c-14.7-5.7-30-9.7-45.2-14c-7.3-2.1-14.8-3.4-22.3-4.6
		c-12.4-1.9-24.9-3.5-37.4-5.1c-2.5-0.3-3.7,0.4-3.7,3.6c0,15.4-0.6,30.8-0.6,46.2c0,14.8,1.1,29.7,0.6,44.4
		c-0.2,6.3,2.2,6.7,7.2,7.4c16.6,2.3,33.3,4.2,49.5,8.2c16.4,4.1,32.5,10,48.4,16.1c38,14.6,71.6,36.8,101.9,63.6
		c27.5,24.3,50.6,52.7,69.1,84.5c9,15.5,17.3,31.6,23.6,48.3c7,18.4,11.8,37.7,16.8,56.8c2.7,10.5,4.4,21.4,5.6,32.2
		c1.2,10.3,0.7,10.3-9.3,11.1c-0.2,0-0.4,0.2-0.5,0.1c-1-0.8-2.7-1.4-2.9-2.4c-0.9-3.3-1.2-6.8-1.9-10.2c-3.4-17-5.6-34.4-10.5-51
		c-5.1-17.3-12.2-34.2-19.7-50.7c-15.4-34.1-36.9-64.1-62.9-90.9c-20.3-21-43-39.1-68.1-54.2c-5-3-10-8.1-15-8.2
		c-4.8-0.1-9.7,5.2-14.5,8.1c-0.6,0.3-1,0.9-1.5,1.3c-23.2,17.7-46.5,35.3-69.7,53c-9.9,7.5-19.8,15.1-29.6,22.7
		c-2.1,1.6-3,2.6,0.8,3.4c11.6,2.5,23.3,4.9,34.6,8.3c22.6,6.8,44,16.2,64.3,28.4c25.4,15.3,48.4,33.6,67.4,56.3
		c11.5,13.7,22.8,27.9,31.8,43.3c9.4,16,16.9,33.4,23.4,50.8c5.6,14.9,9.4,30.5,12.6,46.1c2.3,11.5,2.5,23.4,3.5,35.1
		c1.8,22-0.1,43.7-4.9,65.2c-3.3,14.7-6.8,29.3-11.3,43.6c-6.7,21.3-17.5,40.8-29.7,59.5c-12,18.3-25.9,35-41.8,49.9
		c-10.2,9.5-20.6,19-31.6,27.4c-8.5,6.5-18.3,11.4-27.5,17c-0.9,0.6-1.6,1.7-2.4,2.5c1.1,0,2.3,0.2,3.3-0.1c15-4.5,30.3-8.4,45-13.9
		c17.7-6.6,35.2-13.8,52.2-22c17.4-8.5,34.1-18.3,50.9-28c10.9-6.3,21.8-12.8,31.9-20.3c15.3-11.4,30-23.5,44.7-35.8
		c23-19.3,43.5-41.2,62-64.8c14.7-18.7,27.6-38.9,41-58.6c5.8-8.6,11.3-17.6,16.1-26.8c13.7-26,26.4-52.4,35-80.6
		c4.3-14.2,9.8-28,13.1-42.4c5.5-24.2,10.7-48.5,13.8-73C1201.9,1155.6,1201.8,1133,1202.9,1110.6z M625.8,798.8L625.8,798.8
		c0-16.2-0.2-32.3,0.1-48.5c0.1-4.8-1.9-5.8-5.9-5.1c-3.3,0.6-6.5,1.6-9.8,1.8c-26.4,1.2-52,6.7-77.4,13.8
		c-25.1,7-49.7,15.5-73.3,26.7c-28.3,13.5-55.3,29.3-80.1,48.6c-15.1,11.8-29.5,24.6-43.8,37.5c-7.7,7-14.8,14.9-21.6,22.8
		c-9.9,11.6-19.5,23.4-28.8,35.5c-14.9,19.2-27.7,39.9-37.9,61.9c-8.9,19.1-17.3,38.4-25.7,57.7c-2.6,6-3.1,6.6-9.2,4
		c-0.8-0.3-1.5-0.8-2.3-0.9c-4.6-0.2-4-3-3-6c0.4-1.1,0.9-2.1,1.4-3.2c8.6-20.5,16.2-41.5,26.2-61.3c9-17.7,20.5-34.1,31.3-50.8
		c14.2-22,31.6-41.4,49.7-60.3c17.8-18.7,37.2-35.7,58.3-50.6c26.3-18.6,52.3-37.4,82.5-49.7c32.5-13.3,65-26.4,99.7-32.6
		c20.7-3.7,41.5-6.7,62.4-9.5c5.1-0.7,6.9-2.2,6.9-7.3c-0.1-21.5,0.1-42.9,0.3-64.4c0-3.9-1.3-5-5-4.6c-16.3,2-32.7,3.2-48.9,6
		c-18.2,3.2-36.4,7-54.2,12.1c-26.5,7.6-53,15.8-77.5,28.5c-24.8,12.9-49,27.2-72.6,42.4c-14.8,9.6-28.2,21.5-41.8,33
		c-12.2,10.3-24.5,20.6-35.3,32.3c-13.7,15-25.7,31.5-38.9,47.1c-15.7,18.9-28.1,40.1-40.1,61.5c-17.1,30.5-29.4,63-39.6,96.4
		c-2,6.4-1.7,6.6-12.6,3.4c-4.7-1.4-2.6-5.4-1.8-7.9c4.9-14.2,9.5-28.6,15.4-42.4c7.7-18.1,15.3-36.4,24.9-53.5
		c12.2-21.7,25.3-43,39.8-63.1c13.3-18.4,28.5-35.4,43.8-52.2c9.9-11,21.3-20.5,31.8-30.9c1.7-1.7,3.6-4.4,3.6-6.6
		c0.2-23.2,0.1-46.3,0-69.5c0-1.1-0.4-2.2-0.6-3.3c-1,0.5-2.1,0.8-2.8,1.5c-19.7,18.1-39.8,35.8-58.9,54.4
		c-23.6,22.9-42.3,50-60.1,77.4c-13.3,20.5-23.8,42.9-34.7,64.9c-7.2,14.5-13.6,29.4-18.9,44.7c-6.4,18.9-12,38.2-16.6,57.6
		c-4.6,19.7-8.3,39.6-11.1,59.7c-2.4,17.8-3.5,35.8-4.2,53.7c-0.6,16.5-0.4,33,0.6,49.5c0.9,14.4,3.3,28.6,5.3,42.9
		c1.9,13.1,3,26.5,6.4,39.2c6.6,24.7,13.5,49.4,22.1,73.5c10.5,29.4,23.5,57.8,40.1,84.4c11.5,18.4,23,37,36.3,54.1
		c15.6,20,32.2,39.5,50.1,57.5c17.5,17.5,36.5,33.5,56.1,48.7c17,13.2,35,25.4,53.8,35.9c21.9,12.3,45,22.6,67.8,33.3
		c23.5,11.1,48.5,17.9,73.5,24.4c1.1,0.3,2.4,0.3,3.6,0.4c-1-0.8-1.9-1.7-3-2.4c-15.1-10.1-30.7-19.7-45.4-30.4
		c-17.7-12.9-33-28.7-45.6-46.5c-12.1-17-22.7-35.1-32.5-53.6c-6.7-12.6-11.4-26.5-15.7-40.2c-3.2-10.1-5-20.8-6.5-31.4
		c-2.1-14.4-4.5-29-4.6-43.5c-0.3-27.6,2.8-54.8,10.5-81.5c5.5-18.9,11.6-37.6,21.8-54.6c8.9-14.7,17.7-29.6,27.9-43.5
		c21.8-29.5,48.9-53.3,80.9-71.4c20.5-11.5,41.8-21.3,64.6-27.4c10.9-2.9,21.8-5.5,32.7-8.3c0.7-0.2,1.3-0.7,1.9-1.1
		c-0.6-0.7-1.1-1.5-1.9-2.1c-8.5-6.6-17.1-13.1-25.7-19.7c-12.5-9.6-24.9-19.3-37.5-28.8c-15.6-11.8-31.2-23.6-46.9-35.2
		c-1.5-1.1-4.6-1.3-6.4-0.6c-5.6,2.5-11.4,4.9-16.2,8.6c-19.6,14.8-39.6,29.2-58.1,45.3c-16.4,14.3-29.7,31.6-41.9,49.7
		c-14.8,22-28.4,44.6-37.8,69.4c-4.3,11.4-8.1,23-11.6,34.7c-2.6,8.7-4.5,17.6-6.1,26.5c-1.7,9.1-2.5,18.4-4.3,27.5
		c-0.4,2.1-4.2,5.5-4.7,5.2c-3.2-1.8-10.5,2.6-9.6-5.7c0.6-5.8,1.2-11.5,2.1-17.3c1.4-8.8,2.5-17.7,4.6-26.2
		c2.5-9.9,6.3-19.5,9.1-29.3c5.8-20.7,14.7-40,24.6-58.9c12-22.9,27.2-43.7,43.9-63.3c9.6-11.3,20.7-21.2,31.4-31.6
		c19.5-18.8,41.8-33.9,65.4-46.8c28.6-15.7,58.6-28.2,90.9-34.3c15.1-2.8,30.3-5.5,45.5-7.8c4.3-0.7,5.7-2.3,5.5-6.4
		c-0.5-9.5-1-19-0.9-28.4c0.1-21,0.6-42,0.7-62.9c0-1.2-2.4-3.5-3.7-3.4c-7.6,0.4-15.3,0.7-22.8,2.1c-15.2,2.8-30.4,5.8-45.3,9.7
		c-13.9,3.6-27.8,7.6-41.1,13.1c-17.1,7-33.8,15.2-50.2,23.8c-11.1,5.8-21.6,13-32.2,19.7c-25.8,16.2-47.8,36.9-68.3,59.2
		c-10.2,11.1-19.3,23.3-28.4,35.3c-7.6,10-15.1,20.2-21.4,31c-7.7,13.4-14,27.5-20.8,41.3c-3.9,8-7.6,9-14.5,3.2
		c-1.1-0.9-1.8-3.7-1.2-4.9c7.7-15.4,15.4-30.9,23.7-46c10.7-19.4,23.4-37.3,37.9-54.1c6.7-7.8,12.3-16.8,19.9-23.5
		c20-17.8,40.3-35.5,61.6-51.8c14.5-11.1,30.4-20.9,46.8-28.9c26.8-13.1,54.4-24.3,83.6-31.5c23.7-5.8,47.5-10.5,71.8-12.5
		c3.7-0.3,4.9-1.8,4.8-5.3C625.8,831.2,625.8,815,625.8,798.8z"/>
</g>
</svg>
