<?xml version="1.0" encoding="utf-8"?>
<!-- Generator: Adobe Illustrator 22.0.1, SVG Export Plug-In . SVG Version: 6.00 Build 0)  -->
<svg version="1.1" id="illustrator_vorlage_xA0_Image_1_"
	 xmlns="http://www.w3.org/2000/svg" xmlns:xlink="http://www.w3.org/1999/xlink" x="0px" y="0px" viewBox="0 0 1299.4 1749.2"
	 style="enable-background:new 0 0 1299.4 1749.2;" xml:space="preserve">
<style type="text/css">
	.st0{fill:#292827;}
</style>
<g>
	<path class="st0" d="M658.8,1749.2c-70.6,0-131.3-7.5-190.7-24.2c-120.8-33.9-222.1-91.7-304.1-186.4
		c-57.9-66.9-100.4-142.8-128.7-226.7c-15-44.3-25.3-89.7-30.8-136.1c-5.9-50-5.9-100.1-0.8-150.2C9,973.9,20.3,923.8,39,875.3
		c21-54.4,50.3-103.9,86-149.8c39.5-50.9,84.8-96.2,131.8-140c44.1-41.1,89.1-81.4,132.1-123.7C475,377.2,541,278.6,589.3,168
		c19.4-44.5,35.3-90.2,46.7-137.4c1.7-7.1,2.9-14.4,4.7-21.5c1.2-5.1,2.8-9.7,10-9.1c4.4,0.3,6,2.7,6.9,5.8
		c1.8,6.4,3.1,12.9,4.6,19.4c11.6,51.5,29.2,101,50.6,149.2c55.1,124,133.7,231,233.8,322.6c54.6,49.9,108.5,100.7,161.1,152.6
		c47.7,47.1,89,99.6,121.4,158.7c23.5,42.9,41.1,88,52.5,135.6c16.9,70.2,21.6,141.3,14.9,212.9c-12.6,133.9-60.3,254.3-143.5,360.1
		c-61.7,78.5-137.9,132-228.7,173.9c-44.2,20.4-90.2,35.1-137.9,44.7C741.3,1744.8,695.8,1749.1,658.8,1749.2z"/>
</g>
</svg>
