<?xml version="1.0" encoding="utf-8"?>
<!-- Generator: Adobe Illustrator 22.0.1, SVG Export Plug-In . SVG Version: 6.00 Build 0)  -->
<svg version="1.1" id="Holistic_Bodywork_xA0_Image_1_"
	 xmlns="http://www.w3.org/2000/svg" xmlns:xlink="http://www.w3.org/1999/xlink" x="0px" y="0px" viewBox="0 0 416.467 78.615"
	 style="enable-background:new 0 0 416.467 78.615;" xml:space="preserve">
<style type="text/css">
	.st0{fill:#292827;}
</style>
<g>
	<path class="st0" d="M30.406,6.47c-0.15-0.022-0.265-0.063-0.374-0.051c-1.975,0.211-3.908-0.161-5.845-0.43
		c-3.691-0.512-7.358-0.562-11.009,0.334C9.91,7.127,7.043,8.661,4.464,10.81c-1.452,1.209-2.656,2.589-3.529,4.26
		c-0.489,0.937-0.76,1.931-0.772,2.992c-0.002,0.186-0.02,0.371-0.077,0.551c-0.25-1.445,0.056-2.795,0.751-4.06
		c1.867-3.401,4.729-5.755,8.124-7.472c4.531-2.291,9.377-2.778,14.367-2.262c1.65,0.171,3.3,0.381,4.954,0.443
		c0.903,0.034,1.824-0.162,2.719-0.343c0.306-0.062,0.62-0.347,0.822-0.612c0.859-1.124,1.652-2.298,2.525-3.411
		c0.259-0.33,0.672-0.572,1.061-0.761c0.839-0.407,1.608,0.129,1.546,1.062c-0.073,1.098-0.727,1.905-1.5,2.575
		c-0.704,0.61-1.535,1.072-2.288,1.63c-0.31,0.23-0.65,0.491-0.825,0.819c-2.078,3.897-4.153,7.795-6.173,11.722
		c-1.279,2.486-2.466,5.02-3.69,7.534c-0.117,0.241-0.207,0.495-0.365,0.877c0.532-0.131,0.907-0.258,1.292-0.313
		c3.282-0.476,6.564-0.958,9.851-1.399c1.782-0.239,3.574-0.407,5.363-0.59c0.437-0.045,0.744-0.212,0.951-0.611
		c1.756-3.375,3.833-6.555,6.021-9.657c1.494-2.119,3.128-4.14,4.699-6.205c0.053,0.034,0.106,0.067,0.159,0.101
		c-0.2,0.346-0.397,0.693-0.599,1.037c-2.663,4.529-5.41,9.012-7.964,13.602c-2.032,3.652-3.85,7.428-5.223,11.391
		c-0.622,1.795-0.843,3.659-0.621,5.556c0.21,1.8,1.073,2.464,2.898,2.277c2.421-0.249,4.745-0.915,7.055-1.637
		c1.22-0.381,2.434-0.785,3.63-1.233c0.247-0.093,0.532-0.4,0.583-0.653c0.477-2.34,1.692-4.294,3.132-6.134
		c0.329-0.421,0.711-0.8,1.069-1.198c0.039,0.029,0.079,0.059,0.118,0.088c-0.168,0.225-0.34,0.447-0.502,0.676
		c-1.524,2.155-2.71,4.443-2.671,7.174c0.009,0.615,0.136,1.229,0.214,1.843c0.076,0.598,0.45,0.829,1.011,0.746
		c0.493-0.073,1.001-0.137,1.461-0.313c1.381-0.526,2.76-1.065,4.105-1.673c2.122-0.959,3.295-2.696,3.872-4.903
		c0.354-1.354,0.129-2.575-0.771-3.571c-1.649-1.825-3.714-0.083-4.692-0.964c0.684,0.296,4.467-3.47,6.187,2.024
		c0.851,2.716-0.148,5.675-2.563,7.661c-2.161,1.778-4.608,3.035-7.47,3.235c-1.565,0.109-2.247-0.456-2.51-1.999
		c-0.096-0.563-0.123-1.137-0.192-1.805c-0.273,0.101-0.469,0.168-0.661,0.245c-2.487,0.988-4.948,2.048-7.471,2.933
		c-1.151,0.404-2.416,0.582-3.641,0.647c-2.073,0.11-3.172-0.896-3.567-2.938c-0.446-2.304-0.232-4.578,0.587-6.728
		c1.023-2.683,2.263-5.284,3.409-7.92c0.071-0.164,0.144-0.328,0.205-0.496c0.025-0.07,0.023-0.149,0.048-0.336
		c-0.673,0.072-1.301,0.112-1.919,0.21c-3.928,0.62-7.856,1.239-11.779,1.893c-0.803,0.134-1.605,0.357-2.364,0.652
		c-0.898,0.35-1.654,0.867-2.111,1.826c-3.587,7.527-6.966,15.14-9.712,23.022c-0.253,0.725-0.645,1.412-1.051,2.069
		c-0.257,0.417-0.689,0.694-1.235,0.51c-0.557-0.189-0.69-0.68-0.633-1.168c0.224-1.921,0.355-3.868,0.769-5.75
		c1.403-6.391,4.5-11.969,8.474-17.1c0.22-0.284,0.438-0.58,0.707-0.813c1.225-1.06,1.75-2.552,2.462-3.928
		c2.58-4.988,5.152-9.979,7.729-14.968c0.688-1.331,1.385-2.658,2.073-3.989C30.367,6.7,30.373,6.599,30.406,6.47z M17.105,32.593
		c-2.645,2.255-8.03,15.69-7.42,18.351C12.133,44.892,14.633,38.707,17.105,32.593z"/>
	<path class="st0" d="M143.785,38.333c-1.516,0.75-3.014,1.539-4.552,2.239c-2.226,1.014-4.559,1.718-6.954,2.21
		c-1.106,0.227-2.22,0.321-3.311-0.087c-1.218-0.455-1.987-1.504-1.97-2.798c0.01-0.795,0.142-1.588,0.221-2.382
		c0.021-0.213,0.051-0.425,0.079-0.66c-0.113,0-0.182-0.022-0.223,0.003c-3.569,2.226-7.464,3.727-11.399,5.139
		c-1.24,0.445-2.416,0.961-3.506,1.761c-1.442,1.058-3.136,1.576-4.961,1.498c-1.651-0.07-2.71-0.862-3.161-2.443
		c-0.193-0.678-0.228-1.402-0.335-2.105c0.069-0.012,0.139-0.025,0.208-0.037c0.065,0.365,0.131,0.729,0.194,1.094
		c0.365,2.1,1.697,3.073,3.8,2.767c1.568-0.228,2.928-0.911,4.136-1.915c1.162-0.965,1.311-2.29,1.215-3.661
		c-0.215-3.065,0.313-5.97,1.742-8.702c0.096-0.184,0.15-0.39,0.223-0.585c-0.041-0.03-0.082-0.06-0.124-0.09
		c-0.868,0.745-1.715,1.517-2.609,2.23c-2.545,2.031-5.045,4.127-7.69,6.02c-1.43,1.023-3.079,1.775-4.701,2.486
		c-2.046,0.897-4.14,1.701-6.263,2.394c-0.964,0.314-2.047,0.364-3.075,0.354c-1.597-0.015-2.652-0.925-3.051-2.477
		c-0.128-0.499-0.16-1.023-0.228-1.536c-0.033-0.249-0.046-0.5-0.079-0.864c-0.989,0.462-1.887,0.878-2.783,1.3
		c-3.275,1.546-6.613,2.932-10.099,3.936c-0.23,0.066-0.464,0.12-0.699,0.167c-2.061,0.409-3.256-0.223-4.124-2.157
		c-0.706-1.572-0.782-3.235-0.538-4.885c0.322-2.172,0.746-4.333,1.22-6.477c0.949-4.287,2.341-8.433,4.25-12.391
		c1.999-4.146,4.293-8.129,6.841-11.961c0.849-1.277,1.964-2.31,3.305-3.079c0.096-0.055,0.2-0.097,0.3-0.145
		c0.055,0.059,0.111,0.118,0.166,0.177c-0.171,0.114-0.346,0.224-0.514,0.343c-1.454,1.033-2.491,2.416-3.271,3.994
		c-1.964,3.976-3.989,7.926-5.838,11.955c-2.477,5.396-3.815,11.141-4.811,16.968c-0.218,1.277-0.432,2.576-0.101,3.87
		c0.128,0.5,0.276,1.01,0.516,1.462c0.415,0.779,1.053,1.296,2.003,1.063c1.783-0.437,3.586-0.824,5.323-1.404
		c2.803-0.936,5.558-2.013,8.336-3.025c0.478-0.174,0.714-0.491,0.827-0.996c0.44-1.965,1.641-3.512,2.859-5.049
		c-0.752,1.681-1.989,3.157-2.173,5.137c0.224-0.012,0.391-0.021,0.559-0.03c-0.003,0.038,0.007,0.095-0.01,0.104
		c-0.745,0.4-0.793,1.073-0.709,1.798c0.03,0.258,0.032,0.522,0.088,0.774c0.463,2.057,1.47,2.775,3.631,2.34
		c1.512-0.304,3.004-0.844,4.417-1.476c2.294-1.025,4.583-2.099,6.748-3.367c1.592-0.932,3.015-2.168,4.457-3.338
		c2.094-1.699,4.142-3.455,6.198-5.201c0.529-0.449,1-0.964,1.521-1.423c0.268-0.236,0.568-0.451,0.887-0.609
		c0.473-0.235,0.986-0.414,1.458,0.001c0.456,0.401,0.367,0.907,0.153,1.381c-0.402,0.892-0.785,1.799-1.27,2.645
		c-1.525,2.658-2.147,5.517-2.135,8.561c0.004,1.042-0.205,2.085-0.318,3.137c0.004-0.001,0.158-0.008,0.293-0.063
		c3.648-1.493,7.17-3.241,10.613-5.159c1.779-0.991,2.79-2.516,3.341-4.413c0.49-1.689,0.983-3.377,1.461-5.069
		c0.226-0.801,0.188-0.825-0.61-0.972c-0.653-0.12-1.298-0.279-1.947-0.42c0.004-0.077,0.008-0.155,0.012-0.232
		c0.757-0.107,1.512-0.277,2.272-0.302c0.682-0.023,0.952-0.334,1.175-0.938c1.2-3.246,2.586-6.411,4.357-9.393
		c0.253-0.427,0.556-0.831,0.881-1.207c0.447-0.518,1.05-0.646,1.497-0.376c0.433,0.262,0.617,0.816,0.282,1.444
		c-0.627,1.177-1.314,2.327-2.05,3.44c-1.222,1.848-2.086,3.866-2.903,5.907c-0.231,0.576-0.11,0.714,0.537,0.655
		c1.95-0.177,3.896-0.398,5.847-0.564c1.153-0.098,2.311-0.132,3.468-0.179c0.224-0.009,0.452,0.054,0.818,0.103
		c-1.206,0.738-2.419,0.999-3.619,1.257c-2.443,0.525-4.896,1.01-7.415,0.966c-0.405-0.007-0.622,0.204-0.74,0.568
		c-0.754,2.315-1.553,4.616-2.252,6.948c-0.475,1.586-0.871,3.201-1.194,4.825c-0.349,1.756,0.55,2.905,2.347,2.853
		c1.401-0.04,2.812-0.316,4.185-0.633c3.008-0.693,5.886-1.783,8.685-3.082c0.086-0.04,0.178-0.069,0.267-0.103
		C143.721,38.207,143.753,38.27,143.785,38.333z"/>
	<path class="st0" d="M219.295,55.634c-1.525,1.666-3.087,3.301-5.198,4.244c-1.588,0.709-3.252,0.797-4.919,0.278
		c-1.123-0.35-1.915-1.148-2.517-2.119c-1.413-2.279-2.093-4.791-2.179-7.453c-0.147-4.567,0.777-8.976,2.031-13.338
		c1.374-4.778,3.228-9.369,5.399-13.829c2.056-4.224,4.369-8.308,6.89-12.277c1.882-2.964,4.05-5.693,6.378-8.306
		c0.116-0.13,0.212-0.278,0.392-0.515c-2.875-0.519-5.6,0.13-8.338,0.376c-0.009-0.058-0.018-0.116-0.026-0.174
		c1.526-0.269,3.043-0.614,4.58-0.784c1.424-0.157,2.872-0.092,4.304-0.199c0.424-0.032,0.829-0.313,1.243-0.48
		c-0.042,0.103-0.108,0.264-0.211,0.515c0.36,0.101,0.678,0.189,0.996,0.278c2.526,0.712,4.933,1.676,6.811,3.593
		c3.082,3.148,3.281,7.99,0.528,11.438c-1.794,2.247-3.81,4.255-6.206,5.859c-0.459,0.307-0.943,0.575-1.403,1.004
		c0.276,0.025,0.551,0.064,0.827,0.073c3.786,0.111,7.255,2.873,8.173,6.534c0.577,2.299-0.085,4.343-1.357,6.246
		c-1.363,2.039-2.999,3.834-4.826,5.467c-2.536,2.268-5.117,4.47-8.143,6.077c-0.281,0.149-0.579,0.272-0.88,0.375
		c-0.758,0.258-1.4,0.081-1.698-0.448c-0.336-0.596-0.178-1.425,0.417-1.889c0.286-0.224,0.65-0.349,0.997-0.459
		c-0.346,0.32-0.736,0.604-1.025,0.97c-0.286,0.362-0.359,0.823-0.026,1.219c0.325,0.387,0.772,0.35,1.155,0.14
		c0.839-0.46,1.704-0.901,2.462-1.476c3.468-2.629,6.666-5.55,9.335-9.008c1.041-1.349,1.964-2.772,2.297-4.494
		c0.23-1.186,0.104-2.334-0.498-3.368c-1.021-1.753-2.271-3.296-4.286-3.997c-1.138-0.396-2.313-0.429-3.497-0.299
		c-1.192,0.131-2.381,0.284-3.573,0.413c-0.275,0.03-0.592,0.084-0.827-0.018c-0.298-0.13-0.641-0.358-0.765-0.633
		c-0.175-0.388,0.009-0.81,0.409-1.019c0.566-0.294,1.15-0.556,1.741-0.796c1.797-0.73,3.632-1.407,5.159-2.638
		c2.068-1.668,4.115-3.364,5.509-5.699c2.455-4.11,0.665-8.065-2.303-10.115c-1.571-1.085-3.284-1.879-5.148-2.363
		c-0.895-0.232-1.48-0.04-2.065,0.686c-2.087,2.592-3.871,5.386-5.577,8.231c-3.357,5.598-6.238,11.443-8.725,17.469
		c-2.138,5.179-3.85,10.51-4.816,16.049c-0.557,3.193-0.777,6.397,0.119,9.572c0.221,0.785,0.506,1.564,0.862,2.296
		c1.188,2.441,2.75,3.081,5.53,2.682c1.897-0.272,3.342-1.461,4.777-2.619c0.553-0.446,1.077-0.927,1.614-1.392
		C219.229,55.553,219.262,55.594,219.295,55.634z"/>
	<path class="st0" d="M389.764,38.56c-0.873,0.398-1.558,0.708-2.242,1.022c-2.525,1.161-5.063,2.299-7.789,2.909
		c-0.713,0.159-1.466,0.197-2.2,0.188c-1.752-0.023-2.764-1.023-2.92-2.779c-0.133-1.5,0.185-2.948,0.519-4.388
		c0.371-1.597,0.437-3.201,0.285-4.826c-0.077-0.822-0.371-1.45-1.214-1.741c-0.451-0.156-0.88-0.381-1.307-0.599
		c-0.469-0.239-0.828-0.156-1.134,0.276c-0.854,1.204-1.757,2.374-2.573,3.603c-1.315,1.98-2.676,3.94-3.831,6.013
		c-1.291,2.318-2.372,4.753-3.546,7.137c-0.121,0.245-0.247,0.488-0.504,0.682c0.396-1.158,0.778-2.322,1.19-3.474
		c1.156-3.229,2.617-6.306,4.504-9.182c1.138-1.734,2.178-3.532,3.287-5.286c0.245-0.387,0.076-0.505-0.234-0.677
		c-1.135-0.628-1.533-1.426-1.306-2.553c0.221-1.099,1.272-1.934,2.391-1.876c0.816,0.042,1.268,0.586,1.489,1.282
		c0.166,0.523,0.234,1.097,0.231,1.647c-0.003,0.455,0.14,0.693,0.542,0.876c0.727,0.331,1.431,0.71,2.146,1.067
		c0.79,0.395,1.129,1.082,1.277,1.913c0.353,1.984,0.189,3.935-0.267,5.886c-0.272,1.164-0.543,2.346-0.626,3.534
		c-0.126,1.803,0.492,2.434,1.985,2.376c1.4-0.054,2.825-0.291,4.172-0.682c2.471-0.718,4.895-1.601,7.331-2.439
		c0.214-0.074,0.485-0.302,0.528-0.502c1.034-4.822,3.774-8.824,6.23-12.956c1.883-3.168,4.101-6.1,6.496-8.899
		c0.063-0.074,0.106-0.167,0.158-0.25c0.054,0.041,0.109,0.082,0.163,0.123c-0.554,0.951-1.121,1.894-1.661,2.853
		c-2.498,4.438-4.993,8.878-7.478,13.323c-0.433,0.775-0.375,0.854,0.514,0.985c2.231,0.329,4.311-0.231,6.252-1.24
		c2.124-1.104,4.171-2.356,6.249-3.548c0.414-0.237,0.817-0.494,1.259-0.695c-1.623,1.701-3.464,3.126-5.441,4.391
		c-1.981,1.267-4.08,2.244-6.575,2.665c0.268,0.225,0.37,0.346,0.499,0.414c2.352,1.236,4.711,2.459,7.061,3.698
		c2.504,1.32,5.142,1.408,7.818,0.765c1.662-0.4,3.285-0.962,4.974-1.403c-1.018,0.543-2,1.171-3.06,1.612
		c-2.463,1.024-5.028,1.745-7.703,1.124c-1.504-0.349-2.988-0.915-4.376-1.599c-2.775-1.367-5.481-2.876-8.207-4.343
		c-0.369-0.198-0.58-0.193-0.718,0.235c-0.969,3.011-1.865,6.038-1.831,9.246c0.009,0.875,0.197,1.708,0.754,2.417
		c0.637,0.81,1.488,1.086,2.457,0.826c0.844-0.227,1.657-0.569,2.465-0.854c-0.783,1.065-2.843,1.888-4.152,1.556
		c-1.486-0.377-2.201-1.507-2.546-2.904c-0.476-1.931-0.16-3.854,0.116-5.774C389.713,39.405,389.722,39.074,389.764,38.56z
		 M371.483,25.59c-0.245-0.376-0.432-0.662-0.619-0.949c-0.189,0.232-0.494,0.444-0.54,0.702c-0.076,0.436,0.325,0.609,0.685,0.663
		C371.12,26.023,371.268,25.787,371.483,25.59z"/>
	<path class="st0" d="M294.16,37.468c-0.464,0.291-0.899,0.648-1.396,0.863c-2.327,1.005-4.638,2.06-7.018,2.922
		c-1.914,0.694-3.914,1.163-5.995,0.974c-2.566-0.233-4.312-2.419-3.948-4.971c0.12-0.839,0.301-1.669,0.481-2.645
		c-0.638,0.426-1.169,0.793-1.712,1.14c-3.044,1.947-6.299,3.47-9.69,4.692c-1.552,0.559-3.167,0.691-4.765,0.13
		c-1.281-0.45-1.777-1.432-1.445-2.753c0.316-1.257,1.024-2.307,1.859-3.25c2.89-3.262,6.466-5.249,10.863-5.552
		c1.16-0.08,2.335,0.067,3.503,0.11c-0.002,0.063-0.004,0.127-0.005,0.19c-0.245,0-0.49,0.016-0.733-0.002
		c-3.405-0.262-6.485,0.679-9.298,2.549c-1.834,1.219-3.409,2.712-4.533,4.63c-0.261,0.445-0.492,0.923-0.641,1.414
		c-0.271,0.893,0.055,1.416,0.957,1.663c1.096,0.299,2.213,0.277,3.243-0.149c2.065-0.855,4.105-1.775,6.122-2.737
		c1.915-0.913,3.756-1.97,5.348-3.397c0.668-0.599,1.338-1.215,1.898-1.911c0.363-0.452,0.573-1.046,0.777-1.603
		c1.269-3.465,2.846-6.792,4.755-9.937c1.061-1.748,2.429-3.311,3.688-4.935c0.211-0.272,0.546-0.478,0.863-0.631
		c0.665-0.32,1.404,0.095,1.332,0.82c-0.085,0.861-0.198,1.792-0.595,2.535c-1.344,2.516-2.714,5.031-4.271,7.418
		c-1.623,2.489-3.476,4.829-5.225,7.236c-0.14,0.193-0.304,0.388-0.373,0.608c-0.457,1.447-0.961,2.884-1.315,4.357
		c-0.456,1.897,0.652,3.573,2.549,4.045c1.362,0.339,2.706,0.078,4.045-0.141c2.482-0.408,4.827-1.26,7.136-2.23
		c1.178-0.495,2.368-0.959,3.552-1.437C294.173,37.479,294.16,37.468,294.16,37.468z M281.327,25.78
		c1.152-1.088,4.572-6.936,4.726-8.016C284.094,20.267,282.602,22.96,281.327,25.78z"/>
	<path class="st0" d="M294.173,37.48c0.369-0.204,0.296-0.529,0.218-0.843c-0.566-2.273,0.225-4.161,1.656-5.869
		c0.036-0.042,0.091-0.068,0.272-0.2c-0.367,0.648-0.667,1.156-0.946,1.676c-0.86,1.601-0.967,3.219-0.139,4.877
		c0.351,0.701,0.919,1.021,1.657,1.118c1.343,0.175,2.65-0.095,3.895-0.51c1.204-0.401,2.35-0.992,3.492-1.557
		c0.289-0.143,0.528-0.473,0.689-0.772c0.862-1.6,1.673-3.227,2.544-4.823c0.245-0.449,0.6-0.85,0.957-1.222
		c0.408-0.425,0.911-0.664,1.514-0.376c0.462,0.221,0.834,0.871,0.647,1.485c-0.269,0.885-0.546,1.838-1.094,2.551
		c-0.829,1.079-1.897,1.975-2.856,2.955c-0.205,0.209-0.442,0.418-0.56,0.674c-1.479,3.207-2.45,6.58-3.27,10.007
		c-1.18,4.934-2.276,9.895-4.038,14.667c-1.547,4.188-3.609,8.111-6.424,11.588c-2.134,2.636-4.656,4.801-8.109,5.52
		c-0.811,0.169-1.664,0.188-2.497,0.19c-0.729,0.002-1.221-0.478-1.543-1.087c-0.661-1.25-0.986-2.564-0.654-3.817
		c0.146,0.746,0.243,1.66,0.511,2.52c0.539,1.732,1.28,2.134,3.077,1.781c2.254-0.442,4.215-1.477,5.89-3.039
		c2.535-2.366,4.28-5.282,5.883-8.323c2.706-5.133,4.055-10.701,5.396-16.275c0.855-3.554,1.642-7.125,2.828-10.59
		c0.223-0.653,0.479-1.294,0.782-2.11c-0.9,0.298-1.643,0.554-2.391,0.791c-1.44,0.456-2.913,0.706-4.428,0.589
		c-0.94-0.072-1.717-0.448-2.276-1.258c-0.126-0.182-0.456-0.223-0.693-0.33C294.16,37.468,294.173,37.48,294.173,37.48z
		 M308.153,32.507c0.058,0.031,0.117,0.062,0.175,0.093c0.255-0.473,0.511-0.945,0.766-1.418c-0.064-0.034-0.128-0.068-0.193-0.102
		C308.652,31.556,308.403,32.031,308.153,32.507z"/>
	<path class="st0" d="M148.916,31.643c-0.514,1.603-1.063,3.043-1.424,4.529c-0.28,1.154-0.4,2.361-0.456,3.551
		c-0.064,1.356,0.555,1.949,1.913,1.977c1.727,0.035,3.385-0.399,4.96-1.025c2.579-1.025,5.111-2.17,7.645-3.303
		c0.301-0.134,0.65-0.481,0.71-0.782c0.433-2.167,1.527-3.936,3.125-5.411c1.914-1.766,3.897-3.45,6.291-4.546
		c1.464-0.67,2.981-1.196,4.634-0.859c1.962,0.399,2.78,1.649,2.313,3.602c-0.388,1.623-1.545,2.723-2.667,3.831
		c-0.041-0.029-0.082-0.058-0.123-0.088c0.439-0.628,0.944-1.222,1.299-1.895c0.357-0.676,0.713-1.411,0.809-2.154
		c0.193-1.498-0.609-2.392-2.116-2.266c-1.09,0.091-2.236,0.36-3.21,0.846c-3.07,1.531-5.556,3.809-7.638,6.519
		c-0.387,0.504-0.619,1.126-0.922,1.694c0.04,0.036,0.081,0.072,0.121,0.108c0.247-0.084,0.494-0.168,0.871-0.296
		c-0.156,0.189-0.21,0.293-0.295,0.352c-1.564,1.088-1.131,2.6-0.757,4.012c0.37,1.399,1.52,1.941,2.875,2.046
		c3.035,0.236,5.969-0.137,8.792-1.366c2.105-0.917,4.265-1.708,6.402-2.553c0.182-0.072,0.374-0.122,0.687-0.222
		c-0.111,0.146-0.138,0.213-0.187,0.24c-3.216,1.783-6.398,3.668-9.925,4.76c-2.282,0.707-4.688,0.827-7.061,0.367
		c-2.004-0.389-3.268-2.066-3.47-4.422c-0.017-0.194-0.032-0.388-0.055-0.664c-0.209,0.087-0.353,0.134-0.483,0.204
		c-2.078,1.109-4.124,2.283-6.24,3.314c-1.879,0.916-3.89,1.455-6.002,1.525c-2.528,0.084-3.868-1.277-3.647-3.813
		C145.938,36.571,147.061,34.026,148.916,31.643z"/>
	<path class="st0" d="M317.823,30.59c-0.482,0.744-1.004,1.465-1.436,2.237c-0.652,1.165-1.316,2.333-1.834,3.559
		c-0.461,1.094-0.592,2.287-0.342,3.475c0.089,0.423,0.254,0.839,0.444,1.23c0.254,0.521,0.722,0.798,1.286,0.664
		c1.162-0.277,2.332-0.554,3.452-0.96c1.519-0.551,3.028-1.156,4.478-1.868c1.011-0.497,1.936-1.182,2.849-1.852
		c0.24-0.176,0.394-0.605,0.411-0.927c0.081-1.589,0.495-3.073,1.27-4.456c0.475-0.846,1.175-1.21,1.784-0.956
		c0.589,0.246,0.92,1,0.602,1.877c-0.495,1.363-1.105,2.687-1.72,4.003c-0.183,0.392-0.319,0.742-0.114,1.128
		c0.306,0.577,0.576,1.196,0.991,1.687c0.809,0.957,1.864,1.228,3.089,0.874c2.716-0.786,4.936-2.265,6.702-4.496
		c1.437-1.815,2.502-3.793,3.151-6.006c0.525-1.792,0.379-3.517-0.505-5.171c-0.061-0.115-0.107-0.238-0.16-0.357
		c0.043-0.025,0.086-0.05,0.129-0.075c0.232,0.376,0.499,0.736,0.691,1.132c0.725,1.498,0.843,3.067,0.472,4.68
		c-1.234,5.372-4.156,9.381-9.402,11.422c-2.792,1.087-4.784,0.32-6.274-2.275c-0.279-0.486-0.472-0.557-0.952-0.251
		c-3.036,1.936-6.381,3.113-9.875,3.887c-0.517,0.114-1.077,0.11-1.608,0.061c-0.845-0.079-1.429-0.569-1.762-1.351
		c-0.664-1.558-0.531-3.125-0.039-4.691c0.781-2.489,2.534-4.335,4.09-6.311C317.733,30.532,317.778,30.561,317.823,30.59z"/>
	<path class="st0" d="M353.128,29.736c5.363-1.67,6.372,2.143,6.393,2.794c0.089,2.699-0.986,4.944-2.79,6.865
		c-2.168,2.308-4.941,3.227-8.03,3.295c-1.402,0.031-2.286-0.778-2.51-2.165c-0.232-1.437,0.165-2.78,0.686-4.088
		c0.838-2.105,2.119-3.929,3.641-5.593c0.08-0.088,0.175-0.164,0.269-0.238c0.025-0.02,0.069-0.015,0.038-0.009
		c-0.601,0.987-1.295,1.975-1.831,3.042c-0.8,1.594-1.412,3.269-1.562,5.069c-0.036,0.432-0.01,0.881,0.068,1.308
		c0.162,0.883,0.625,1.273,1.511,1.175c4.117-0.453,7.766-2.043,9.46-5.973C358.989,34.014,359.37,29.316,353.128,29.736z"/>
	<path class="st0" d="M246.415,29.752c-2.201,2.869-3.466,6.098-4.157,9.587c-0.019,0.098-0.028,0.198-0.033,0.298
		c-0.065,1.235,0.459,1.721,1.667,1.5c2.576-0.472,4.941-1.454,7.016-3.065c1.44-1.118,3.883-4.5,3.242-6.235
		c-0.779-2.106-4.776-1.814-5.38-2.085c1.632-0.454,4.202-0.635,5.924,0.907c2.469,2.209-2.688,8.088-4.556,9.42
		c-1.909,1.363-3.979,2.375-6.348,2.638c-1.761,0.195-3.083-0.709-2.982-2.72c0.083-1.672,0.706-3.162,1.491-4.575
		c0.794-1.429,1.705-2.798,2.637-4.142C245.334,30.705,245.916,30.258,246.415,29.752z"/>
	<path class="st0" d="M98.38,16.662c-0.568,0.349,0.109,0.595-0.022,1.008c0.191-0.152,0.276-0.219,0.363-0.288
		c0.31,0.569,0.269,0.982-0.122,1.253c-0.429,0.297-1.086,0.165-1.441-0.288c-0.408-0.52-0.365-1.403,0.1-1.799
		C97.663,16.202,98.044,16.232,98.38,16.662z"/>
	<path class="st0" d="M156.559,16.451c-0.232,0.378-0.075,0.89,0.243,1.061c0.174,0.094,0.416,0.307,0.404,0.447
		c-0.021,0.245-0.155,0.562-0.347,0.693c-0.456,0.311-0.919,0.169-1.301-0.203c-0.391-0.38-0.482-1.13-0.212-1.619
		C155.585,16.395,155.946,16.273,156.559,16.451z"/>
</g>
</svg>
