<?xml version="1.0" encoding="utf-8"?>
<!-- Generator: Adobe Illustrator 22.0.1, SVG Export Plug-In . SVG Version: 6.00 Build 0)  -->
<svg version="1.1" id="Layer_1" xmlns="http://www.w3.org/2000/svg" xmlns:xlink="http://www.w3.org/1999/xlink" x="0px" y="0px"
	 viewBox="0 0 170 170" style="enable-background:new 0 0 170 170;" xml:space="preserve">
<style type="text/css">
	.st0{opacity:0;fill:#FFFFFF;}
	.st1{fill:#383330;}
</style>
<rect class="st0" width="170" height="170"/>
<g>
	<g>
		<path class="st1" d="M99.8,73.6c-2.9,0-5.3-0.7-7.1-1.9c-6-4.3-8.5-20.3,2.8-37.7C106.3,17.3,133,7.7,134.1,7.3
			c0.9-0.3,1.9-0.2,2.7,0.3c0.8,0.5,1.3,1.4,1.3,2.3c0.1,1.5,1.7,37-10.7,49.9C117.6,70,106.4,73.6,99.8,73.6z M132.2,14.5
			c-7.6,3.2-24.3,11.3-31.7,22.8c-9.9,15.5-7.1,27.6-4.3,29.6c0.2,0.2,1.2,0.7,3.5,0.7c5.9,0,15.3-3.7,23.2-11.9
			C130.8,47.6,132.3,26.1,132.2,14.5z"/>
	</g>
	<g>
		<path class="st1" d="M59.4,68.3C59.4,68.3,59.4,68.3,59.4,68.3c-4.8,0-12.8-2.6-19.8-9.8c-8.8-9.1-7.8-32.6-7.7-35.3
			c0-0.9,0.5-1.8,1.3-2.3c0.8-0.5,1.8-0.7,2.7-0.3c0.8,0.3,19.6,7,27.2,18.9c8.2,12.7,6.2,24.1,1.7,27.4
			C63.4,67.8,61.6,68.3,59.4,68.3z M37.8,27.8c0.1,8.1,1.2,21.5,6.1,26.5c5.3,5.5,11.6,8,15.4,8h0c1.1,0,1.7-0.2,1.9-0.3
			c1.5-1.1,3.3-9.1-3.2-19.3C53.5,35.5,43.4,30.3,37.8,27.8z"/>
	</g>
	<g>
		<path class="st1" d="M76.1,170H42.7c-0.8,0-1.6-0.3-2.2-0.9c-0.6-0.6-0.9-1.4-0.8-2.2c0.1-2.6,0.3-4.3,0.4-5.4
			c1.1-7.8,1.7-33.8-3.7-51.8c-5.8-19.3-1.8-39.4-1.6-40.2c0.3-1.4,1.5-2.4,2.9-2.4c0,0,0,0,0,0c1.4,0,2.7,1,2.9,2.4
			c0,0.2,3.7,19,8.3,27.3c2.6,4.7,6.1,8.9,8.7,11.8l23.7-80.4c0.4-1.5,2-2.4,3.5-2.1c1.5,0.3,2.6,1.8,2.3,3.3
			c-0.1,0.6-8.7,64.5-8.9,96.3c-0.1,10.3,0.2,24.2,0.7,41.2c0,0.8-0.3,1.6-0.8,2.2C77.7,169.7,76.9,170,76.1,170z M45.9,164H73
			c-0.4-15.7-0.6-28.5-0.6-38.3c0.1-16.4,2.4-41.1,4.6-61.4l-15,50.9c-0.3,1-1.1,1.8-2.1,2c-1,0.3-2.1,0-2.8-0.7
			c-0.3-0.3-8.2-7.6-13.3-16.8c-1.7-2.9-3.2-6.9-4.4-11c0.1,5.9,0.9,12.6,2.8,19.2c6,20,4.9,47.2,3.9,54.3
			C46,162.6,46,163.1,45.9,164z"/>
	</g>
</g>
</svg>
