<?xml version="1.0" encoding="utf-8"?>
<!-- Generator: Adobe Illustrator 22.0.1, SVG Export Plug-In . SVG Version: 6.00 Build 0)  -->
<svg version="1.1" id="Layer_1" xmlns="http://www.w3.org/2000/svg" xmlns:xlink="http://www.w3.org/1999/xlink" x="0px" y="0px"
	 viewBox="0 0 1731.038 363.511" style="enable-background:new 0 0 1731.038 363.511;" xml:space="preserve">
<style type="text/css">
	.st0{fill:#292827;}
</style>
<g>
	<path class="st0" d="M1273.635,176.25c-49.263-0.563-87.111-40.012-86.505-90.163c0.59-48.836,39.189-86.401,87.695-86.085
		c48.953,0.319,87.578,41.058,86.065,90.275C1359.429,137.801,1320.712,176.788,1273.635,176.25z M1274.1,15.457
		c-9.936,0.004-19.607,1.471-28.647,5.759c-48.636,23.07-49.624,81.394-26.758,111.477c21.991,28.931,59.728,37.406,89.788,18.937
		c21.232-13.045,32.308-32.707,34.984-57.515C1347.983,52.25,1315.797,15.521,1274.1,15.457z"/>
	<path class="st0" d="M1547.608,19.446c-3.335,4.685-6.087,8.55-8.865,12.451c-14.018-9.408-28.957-14.903-45.391-16.228
		c-46.516-3.748-74.322,32.053-75.13,68.807c-0.538,24.469,6.387,45.9,25.728,61.735c20.715,16.961,44.076,18.914,68.561,9.345
		c9.359-3.658,17.895-8.984,24.512-16.764c1.456-1.711,2.648-4.228,2.732-6.42c0.317-8.284,0.127-16.588,0.127-25.34
		c-9.704,0-18.967,0-28.641,0c0-5.012,0-9.581,0-14.563c14.399,0,28.966,0,43.969,0c0,26.68,0,53.532,0,80.7
		c-4.603,0-9.186,0-14.339,0c0-6.282,0-12.486,0-19.501c-1.41,0.815-2.136,1.078-2.661,1.56
		c-42.497,39.05-116.121,23.261-133.954-41.531c-10.298-37.416,2.287-75.075,31.846-97.364
		c16.553-12.481,35.402-16.954,55.904-15.998c13.997,0.653,27.372,3.652,39.971,9.643
		C1537.29,12.504,1542.107,16.071,1547.608,19.446z"/>
	<path class="st0" d="M738.463,106.861c-10.027,0-19.307,0-28.927,0c0-5.011,0-9.58,0-14.473c14.66,0,29.07,0,43.971,0
		c0,26.834,0,53.665,0,80.797c-4.784,0-9.371,0-14.47,0c0-6.348,0-12.567,0-19.768c-2.49,2.059-4.184,3.514-5.934,4.899
		c-45.001,35.643-110.533,15.949-128.617-38.646c-13.147-39.693-0.979-80.455,31.102-104.124
		c14.621-10.787,31.278-15.32,49.192-15.409c16.001-0.08,31.482,2.939,45.948,9.947c5.181,2.51,9.894,5.986,15.282,9.305
		c-3.168,4.51-5.896,8.394-8.861,12.615c-10.262-7.513-21.674-11.837-33.698-14.66C657.6,6.579,617.082,38.566,616.61,85.69
		c-0.237,23.714,6.646,44.497,25.197,60.013c20.901,17.482,44.517,19.514,69.365,9.758c9.351-3.672,17.889-9.009,24.442-16.862
		c1.451-1.739,2.637-4.264,2.722-6.475C738.653,123.856,738.463,115.569,738.463,106.861z"/>
	<path class="st0" d="M1650.93,3.232c5.89-0.053,12.48-1.98,16.53,0.406c3.633,2.141,4.704,8.938,6.508,13.829
		c18.518,50.216,36.955,100.462,55.405,150.703c0.51,1.389,0.906,2.821,1.666,5.21c-5.634,0-10.844,0.198-16.013-0.18
		c-0.943-0.069-1.99-2.385-2.522-3.835c-5.612-15.289-11.223-30.58-16.598-45.954c-1.167-3.338-2.705-4.624-6.377-4.588
		c-19.815,0.192-39.634,0.174-59.45,0.013c-3.549-0.029-5.273,1-6.459,4.47c-5.158,15.097-10.81,30.026-15.877,45.152
		c-1.386,4.138-3.437,5.458-7.535,5.091c-3.59-0.322-7.232-0.067-11.753-0.067C1609.484,116.175,1630.231,59.637,1650.93,3.232z
		 M1659.971,22.052c-9.758,27.166-19.609,54.592-29.626,82.482c19.753,0,38.92,0,58.554,0
		C1679.108,76.618,1669.46,49.109,1659.971,22.052z"/>
	<path class="st0" d="M489.918,3.329c0.593-0.16,0.754-0.241,0.915-0.241c5.488,0.028,12.173-1.832,16.112,0.655
		c3.633,2.294,4.454,9.206,6.279,14.17c18.293,49.771,36.538,99.559,54.795,149.343c0.622,1.697,1.228,3.4,2.209,6.118
		c-5.823,0-11.037,0.197-16.208-0.181c-0.937-0.069-1.971-2.399-2.504-3.852c-5.609-15.293-11.22-30.588-16.591-45.965
		c-1.172-3.354-2.752-4.589-6.398-4.554c-19.817,0.189-39.638,0.182-59.455,0.007c-3.597-0.032-5.271,1.1-6.44,4.51
		c-5.229,15.251-10.819,30.378-16.07,45.621c-1.142,3.314-2.604,4.955-6.36,4.602c-3.916-0.369-7.893-0.082-12.72-0.082
		C448.508,116.177,469.257,59.632,489.918,3.329z M499,22.071c-9.705,27.015-19.599,54.553-29.602,82.396c19.767,0,38.93,0,58.505,0
		C518.099,76.517,508.46,49.039,499,22.071z"/>
	<path class="st0" d="M272.597,173.463c-5.354,0-10.156,0.286-14.883-0.181c-1.351-0.133-3.052-2.239-3.631-3.798
		c-5.677-15.272-11.26-30.581-16.599-45.973c-1.248-3.598-3.026-4.731-6.81-4.692c-19.653,0.201-39.31,0.213-58.963-0.009
		c-3.896-0.044-5.477,1.326-6.686,4.841c-5.298,15.404-10.953,30.685-16.289,46.076c-0.983,2.837-2.323,3.991-5.346,3.814
		c-4.123-0.24-8.271-0.06-13.025-0.06c0.649-2.244,1.038-3.971,1.643-5.618c19.588-53.375,39.249-106.724,58.692-160.151
		c1.417-3.893,3.258-4.901,7.156-4.826c12.415,0.238,12.407,0.081,16.687,11.742c18.618,50.723,37.245,101.443,55.856,152.169
		C271.123,168.772,271.721,170.795,272.597,173.463z M230.441,104.645c-9.805-28.004-19.478-55.633-28.929-82.628
		c-9.78,27.224-19.673,54.766-29.682,82.628C191.643,104.645,210.736,104.645,230.441,104.645z"/>
	<path class="st0" d="M786.955,173.482c4.3-11.812,8.242-22.72,12.239-33.607C815.35,95.869,831.581,51.89,847.59,7.83
		c1.377-3.79,3.049-5.044,7.071-4.958c12.527,0.266,12.534,0.079,16.787,11.666c18.616,50.722,37.232,101.443,55.836,152.169
		c0.728,1.985,1.323,4.019,2.212,6.741c-5.462,0-10.417,0.29-15.295-0.199c-1.26-0.126-2.725-2.53-3.332-4.171
		c-5.601-15.119-11.165-30.256-16.423-45.497c-1.25-3.623-2.984-4.787-6.753-4.753c-19.819,0.179-39.641,0.175-59.46-0.001
		c-3.441-0.03-4.934,1.09-6.04,4.285c-5.382,15.551-11.075,30.994-16.506,46.528c-0.956,2.736-2.159,4.116-5.278,3.909
		C796.281,173.276,792.121,173.482,786.955,173.482z M858.411,22.061c-9.698,27.005-19.611,54.611-29.614,82.466
		c19.667,0,38.861,0,58.553,0C877.537,76.562,867.88,49.044,858.411,22.061z"/>
	<path class="st0" d="M16.058,173.176c-5.936,0-10.858,0-16.058,0C0,116.455,0,60.041,0,3.707c0.416-0.26,0.69-0.581,0.961-0.579
		C23.608,3.372,46.293,2.915,68.89,4.115c21.772,1.156,39.875,20.595,41.719,42.966c1.224,14.844-0.767,28.887-10.599,40.965
		c-11.41,14.015-26.762,18.365-43.961,18.402c-11.332,0.024-22.664,0.005-33.996,0.005c-1.798,0-3.596,0-5.994,0
		C16.058,128.921,16.058,150.845,16.058,173.176z M16.897,17.743c-0.445,0.87-0.723,1.16-0.724,1.451
		c-0.078,23.161-0.179,46.322-0.048,69.481c0.006,1.032,2.143,2.946,3.282,2.942c14.987-0.057,30.049,0.458,44.936-0.892
		c13.878-1.259,23.859-9.307,27.756-23.11c6.935-24.566-3.636-49.952-36.151-49.868c-8.833,0.023-17.666-0.003-26.499-0.005
		C25.166,17.742,20.882,17.743,16.897,17.743z"/>
	<path class="st0" d="M419.418,3.365c0,4.908,0,9.361,0,14.235c-20.167,0-40.099,0-60.611,0c0,51.98,0,103.538,0,155.488
		c-5.799,0-11.021,0-16.67,0c0-51.631,0-103.066,0-155.068c-20.475,0-40.541,0-61.013,0c0-5.124,0-9.691,0-14.655
		C327.03,3.365,373.071,3.365,419.418,3.365z"/>
	<path class="st0" d="M1029.468,2.986c6.16,0,11.459-0.219,16.717,0.15c1.355,0.095,3.012,1.79,3.801,3.167
		c14.461,25.279,28.809,50.623,43.187,75.95c0.48,0.846,1.023,1.656,1.665,2.689c0.521-0.451,0.944-0.665,1.14-1.008
		c14.743-25.886,29.503-51.764,44.142-77.71c1.423-2.522,3.073-3.443,5.898-3.307c4.483,0.216,8.984,0.058,14.359,0.058
		c-1.064,1.992-1.812,3.521-2.673,4.984c-17.217,29.275-34.506,58.508-51.577,87.867c-1.57,2.701-2.461,6.194-2.49,9.329
		c-0.208,22.485-0.111,44.973-0.111,67.893c-5.486,0-10.711,0-16.466,0c-0.08-1.714-0.23-3.471-0.232-5.228
		c-0.017-20.996,0.075-41.993-0.112-62.988c-0.025-2.819-0.85-5.96-2.27-8.388c-17.229-29.459-34.641-58.812-52-88.196
		C1031.605,6.826,1030.816,5.373,1029.468,2.986z"/>
	<path class="st0" d="M1192.498,310.478c-4.513,16.746-8.711,32.142-12.775,47.574c-0.716,2.717-1.599,4.353-4.906,4.293
		c-3.181-0.057-3.761-1.796-4.388-4.246c-4.82-18.836-9.733-37.649-14.722-56.874c1.96-0.117,3.562-0.213,5.828-0.349
		c4.433,17.709,8.85,35.356,13.558,54.164c4.736-17.407,9.13-33.658,13.62-49.883c0.405-1.462,1.12-3.556,2.215-3.97
		c2.991-1.131,4.676,0.318,5.513,3.594c3.992,15.629,8.214,31.2,12.38,46.785c0.197,0.737,0.645,1.406,1.281,2.752
		c4.702-18.209,9.21-35.666,13.734-53.183c2.031,0,3.651,0,5.867,0c-2.154,8.259-4.209,16.223-6.311,24.174
		c-2.932,11.093-5.782,22.212-8.988,33.226c-0.441,1.514-2.541,3.07-4.192,3.588c-2.659,0.835-4.017-0.744-4.739-3.556
		c-3.724-14.497-7.679-28.934-11.563-43.389C1193.583,313.96,1193.187,312.76,1192.498,310.478z"/>
	<path class="st0" d="M680.693,301.187c1.737,0,3.348,0,5.407,0c4.323,17.328,8.657,34.696,12.99,52.064
		c0.291,0.064,0.581,0.129,0.872,0.193c4.712-17.318,9.424-34.635,14.201-52.191c1.86,0,3.618,0,5.657,0
		c4.742,17.522,9.47,34.994,14.542,53.738c4.815-18.599,9.345-36.093,13.921-53.767c1.824,0,3.421,0,5.384,0
		c-0.111,1.229-0.054,2.359-0.33,3.401c-4.732,17.836-9.557,35.647-14.214,53.502c-0.72,2.762-1.54,4.331-4.873,4.263
		c-3.185-0.064-3.803-1.814-4.44-4.215c-4.131-15.572-8.33-31.126-12.802-47.791c-0.93,3.434-1.602,5.923-2.277,8.412
		c-3.612,13.316-7.305,26.612-10.767,39.967c-0.676,2.606-1.884,4.032-4.393,3.367c-1.596-0.423-3.9-1.566-4.238-2.828
		c-5.041-18.783-9.81-37.639-14.624-56.483C680.594,302.378,680.693,301.882,680.693,301.187z"/>
	<path class="st0" d="M1071.612,331.197c0.038-17.735,13.751-31.392,31.359-31.232c17.343,0.158,30.779,13.864,30.759,31.374
		c-0.021,17.804-13.552,31.76-30.897,31.868C1085.267,363.317,1071.573,349.277,1071.612,331.197z M1077.537,330.931
		c-0.118,15.108,10.668,26.891,24.745,27.029c14.166,0.139,25.406-11.437,25.557-26.319c0.148-14.687-10.571-26.067-24.843-26.373
		C1088.906,304.965,1077.652,316.31,1077.537,330.931z"/>
	<path class="st0" d="M627.289,363.22c-17.464,0.075-31.427-14.175-31.377-32.022c0.049-17.375,13.695-31.117,31.013-31.231
		c17.453-0.115,31.505,13.921,31.401,31.366C658.222,349.045,644.497,363.146,627.289,363.22z M652.233,331.646
		c0.341-14.515-10.557-26.126-24.772-26.392c-14.033-0.263-25.399,11.123-25.626,25.671c-0.227,14.522,10.769,26.697,24.404,27.022
		C640.756,358.292,651.872,347.045,652.233,331.646z"/>
	<path class="st0" d="M1012.852,336.391c0,8.726,0,16.83,0,25.161c-3.384,0.902-5.904,1.65-5.883-3.086
		c0.085-18.498,0.05-36.997,0.077-55.496c0.001-0.468,0.21-0.936,0.336-1.462c8.331,0,16.634-0.546,24.829,0.162
		c7.414,0.64,12.086,5.896,13.276,12.896c1.404,8.263-1.53,15.084-8.117,18.863c-0.85,0.487-1.71,0.956-2.948,1.648
		c4.756,8.867,9.428,17.579,14.184,26.446c-4.135,1.535-6.485,0.606-8.292-3.184c-3.005-6.304-6.661-12.295-9.792-18.543
		c-1.309-2.611-2.963-3.633-5.856-3.46C1020.898,336.56,1017.107,336.391,1012.852,336.391z M1012.738,331.14
		c2.454,0,4.245,0.021,6.035-0.004c3.821-0.055,7.676,0.166,11.453-0.272c5.899-0.684,9.55-5.479,9.641-12.002
		c0.096-6.934-2.962-11.348-9.17-12.162c-4.916-0.644-9.938-0.672-14.905-0.578c-1.035,0.02-2.882,1.751-2.918,2.745
		C1012.62,315.984,1012.738,323.114,1012.738,331.14z"/>
	<path class="st0" d="M840.961,301.065c-0.096,3.323-1.218,4.507-4.698,4.077c-4.806-0.594-10.03,0.539-12.066,5.145
		c-1.406,3.182-1.452,8.201,0.177,11.127c1.507,2.705,5.883,4.614,9.3,5.258c4.651,0.877,9.591,0.218,14.954,0.218
		c0.142-2.716,0.276-5.287,0.433-8.305c1.667-0.097,3.24-0.188,5.315-0.309c0.163,2.92,0.308,5.495,0.47,8.392
		c2.573,0.185,4.989,0.358,7.696,0.552c0.084,1.423,0.159,2.684,0.263,4.445c-2.615,0.216-5.024,0.416-8.214,0.68
		c0,3.552,0.125,6.989-0.021,10.415c-0.669,15.688-12.579,24.125-27.627,19.477c-7.066-2.183-11.842-6.8-12.969-14.344
		c-1.138-7.62,2.417-13.819,9.617-18.096c-2.23-3.482-5.548-6.728-6.385-10.52c-0.817-3.705-0.038-8.442,1.703-11.885
		C822.266,300.759,831.878,298.368,840.961,301.065z M849.434,331.612c-7.627,0.499-14.087,0.434-20.365,1.473
		c-6.074,1.005-9.541,6.229-9.378,12.314c0.17,6.326,4.699,11.181,11.519,12.346c7.865,1.344,14.711-1.841,16.372-8.588
		C848.863,343.947,848.777,338.401,849.434,331.612z"/>
	<path class="st0" d="M972.621,339.345c-2.553-3.47-9.878,2.657-9.821-5.91c5.166,0,10.08,0,15.417,0c0,9.257,0,18.634,0.007,28.013
		c-4.383,0.944-4.383,0.944-5.422-5.716c-9.078,7.223-19.064,9.42-29.884,5.803c-6.725-2.248-11.784-6.82-15.38-12.875
		c-8.306-13.987-5.005-32.19,7.574-42.383c10.696-8.667,29.959-8.372,40.067,0.855c-0.737,1.135-1.508,2.324-2.292,3.532
		c-0.684-0.144-1.159-0.206-1.611-0.344c-5.504-1.679-10.913-4.298-16.527-4.857c-10.696-1.065-20.382,5.88-24.01,15.902
		c-4.25,11.741-0.693,25.009,8.585,32.023c8.163,6.171,19.868,6.103,28.969-0.168C973.413,349.693,974.064,347.486,972.621,339.345z
		"/>
	<path class="st0" d="M516.834,301.369c1.255,3.591-0.076,4.716-3.445,4.634c-5.992-0.145-11.995,0.101-17.984-0.091
		c-3.309-0.106-4.901,0.724-4.697,4.419c0.275,4.981,0.221,9.995,0.013,14.983c-0.134,3.223,0.944,4.485,4.252,4.38
		c5.963-0.189,11.937-0.053,18.238-0.053c0,1.817,0,3.183,0,5.1c-7.341,0-14.587,0-22.367,0c0,9.269,0,18.018,0,27.099
		c-2.092,0-3.638,0-5.478,0c0-20.202,0-40.127,0-60.471C495.761,301.369,506.139,301.369,516.834,301.369z"/>
	<path class="st0" d="M549.435,357.024c9.671,0,18.606,0,29.357,0c-1.478,2.399-2.297,4.955-3.183,4.978
		c-10.421,0.279-20.852,0.179-31.548,0.179c0-20.692,0-40.748,0-60.956c1.839,0,3.412,0,5.375,0
		C549.435,319.744,549.435,338.007,549.435,357.024z"/>
</g>
</svg>
