<?xml version="1.0" encoding="utf-8"?>
<!-- Generator: Adobe Illustrator 22.0.1, SVG Export Plug-In . SVG Version: 6.00 Build 0)  -->
<svg version="1.1" id="Layer_1" xmlns="http://www.w3.org/2000/svg" xmlns:xlink="http://www.w3.org/1999/xlink" x="0px" y="0px"
	 viewBox="0 0 185.4 165.7" style="enable-background:new 0 0 185.4 165.7;" xml:space="preserve">
<style type="text/css">
	.st0{fill:none;stroke:#383330;stroke-width:3;stroke-linecap:round;stroke-linejoin:round;stroke-miterlimit:10;}
</style>
<g id="XMLID_32_">
	<g id="XMLID_66_">
		<path id="XMLID_136_" class="st0" d="M104.5,30.8c-0.6,1.4-1.7,3.5-3.5,5.6c-0.2,0.2-0.3,0.4-0.5,0.6c-0.6,0.6-2.2,1.2-2.8,1.7
			c-2,0.9-7.2-3.3-10.3-5.1c-6.9-6.1-7.5-7.1-9.3-12.2c-3.4-9.1,2.7-19.3,12.4-19.9c11.4-0.7,19.1,11.9,20.1,20.5
			c0.7,5.7,2.1,8.8,3.5,10.6"/>
		<path id="XMLID_124_" class="st0" d="M52.6,113.4c2.6,3.9,5.3,8.4,6.7,12.9c0.4,1.2,0.4,2.7-0.4,3.7c-0.4,0.6-1,0.9-1.6,1.3
			c-10.1,5.9-23.6,6.6-34.1,1.1"/>
		<path id="XMLID_101_" class="st0" d="M94.5,115.2c0,0,23.4,10.1,27.3,20.1c2.4,6.1-17,5.6-32.1,4.4l-8.9-1.6
			c-3.5-0.6-7-0.5-10.4,0.5l-9.9,3.8"/>
		<path id="XMLID_2796_" class="st0" d="M183.7,130.2c0,0.3-0.1,2.7-0.4,5.9c-0.1,1.3-0.2,2.7-0.3,4.5c-0.4,5.2-0.8,12.6-0.7,22
			c-12.2-0.1-24.4-0.2-36.6-0.2c-0.1-0.8-0.1-2-0.2-3.4c-0.1-1.3-0.2-2.7-0.2-4.4c-0.3-5.5-0.3-9.9-0.4-13.7
			c-0.2-9.5-0.3-14.8-3.1-21.3c-0.7-1.6-1.8-3.9-3.6-6.5c-0.1-0.1-0.3-0.3-0.5-0.7c-1.2-3.1,4.5-6.9,6.6-8.2
			c10.3-6.4,27.3-5.6,35.1,4.6C184.4,115.5,184,125,183.7,130.2z"/>
		<path id="XMLID_68_" class="st0" d="M144.8,146.5H19.2c-9.8,0-17.7,7.9-17.7,17.7l0,0"/>
		<path id="XMLID_129_" class="st0" d="M86.1,129c-5.9-2-12.7-4.5-16.2-6.3c-0.1-0.1-0.4-0.2-0.8-0.4c-2.7-1.6-4.7-4.2-5.2-7.3
			c0-0.2-0.1-0.5-0.1-0.8c0-0.2,0-0.5,0-0.7c0-4.5,4.1-7.1,8.1-7.5c4.3-0.4,8.7,0.4,12.8,1.2c6.5,1.2,12.8,3,19.2,4.8
			c1.5,0.4,3,0.8,4.6,1.3c8.2,2.2,17.4,4.2,29-0.8"/>
		<path id="XMLID_122_" class="st0" d="M65.3,101.1l5.9-3.3c1.3-0.6,2.8-1,4.2-1h7.3l16.8-20.7c0,0-3.9-24.3,6.8-35.6
			c2.4-3.5,5-6.6,7.2-7.8c0,0,0.2-0.1,0.4-0.3c0.1,0,0.1,0,0.1,0s5.4,0.1,9.1,3.4c5.5,4.9,21.8,48.8,21.8,48.8s4.1,6.8,4.1,10.8"/>
		<line id="XMLID_135_" class="st0" x1="104.5" y1="41.9" x2="101" y2="36.3"/>
		<path id="XMLID_131_" class="st0" d="M46,112.7c-3.4-0.1-6.6,1.5-9.2,3.7c-3.2,2.7-5.7,5.5-7,7.3c-3.7,5.1-3.8,7.9-6.6,8.8
			c-2,0.6-3.8-0.2-5.4-0.9c-4.7-2-6.8-6.4-7.4-7.6c-0.2-0.5-2.7-6-0.7-12.2c3.4-10.8,17.4-14.8,25-15c5.6-0.1,9.5,1.7,10.6,2.2
			c3,1.5,4.3,3.1,4.7,3.7c1.5,2,2,4.1,2.1,5.2c0,0,7.3,2.3,13.8,0.7"/>
		<path id="XMLID_70_" class="st0" d="M10.2,110.1c-1.7-2.3-2.9-5.1-2.9-8C7.5,90.5,23,84.3,32.2,90c2.3,1.4,4.9,3.9,4.5,6.9"/>
		<path id="XMLID_109_" class="st0" d="M10.9,148.6c0,0-3.1-16.6,8.2-16.5"/>
		<path id="XMLID_130_" class="st0" d="M68.3,139c-0.8-8.2-9.4-8.9-9.4-8.9"/>
		<polyline id="XMLID_126_" class="st0" points="115,75 106.7,90.9 88.9,101.1 		"/>
		<path id="XMLID_127_" class="st0" d="M112,85l4,7.9c1.8,2.9,2.3,6.4,1.5,9.7l-0.8,3.2"/>
		<polyline id="XMLID_123_" class="st0" points="99.2,57.8 90.2,75.8 74,91.3 		"/>
	</g>
	<line id="XMLID_72_" class="st0" x1="1.5" y1="164.2" x2="127.4" y2="164.2"/>
</g>
</svg>
