<?xml version="1.0" encoding="utf-8"?>
<!-- Generator: Adobe Illustrator 22.0.1, SVG Export Plug-In . SVG Version: 6.00 Build 0)  -->
<svg version="1.1" id="Layer_1" xmlns="http://www.w3.org/2000/svg" xmlns:xlink="http://www.w3.org/1999/xlink" x="0px" y="0px"
	 viewBox="0 0 258 157.9" style="enable-background:new 0 0 258 157.9;" xml:space="preserve">
<style type="text/css">
	.st0{fill:none;stroke:#383330;stroke-width:3;stroke-linecap:round;stroke-linejoin:round;stroke-miterlimit:10;}
</style>
<g id="XMLID_1_">
	<path id="XMLID_13_" class="st0" d="M71.8,42.8l2.1-3.2l4.5,0.1c1.9,0.8,4.1,0.2,5.2-1.6C89.6,28.7,94.4,9,81,2.8
		c-5.9-2.6-13.4-1.2-18,3.3c-7,6.7-6.2,20.1-6.2,20.1s1.7,3.6,4.3,5.1l-1.7,8.3"/>
	<path id="XMLID_12_" class="st0" d="M70.7,130.9c-0.7-2-1.5-5.4-1.2-9.7c0.3-3.4,1.2-6.2,2-8l-0.7-1.8C67.9,104.3,65,97.1,62,90
		c-3.6-8.7-7.6-17.3-8.8-26.8c-0.7-5.8-1.2-11.4,1.2-17c0.4-0.8,3.9-7.6,4.9-6.8l13.9,5.4c3.4,1.8,3.8,5.3,6,8.4
		c4,3.2,9.2,7.1,15.3,14.4l40.3,16.9l10.1,8.9c2,1.7,1.5,4.9-0.9,6l-3.6,1.6c-1.5,0.7-3.3,0.3-4.3-1l-6.5-8.1l-37.8-6.3l-18.5-8.5"
		/>
	<path id="XMLID_11_" class="st0" d="M220,70.6c-1.5-5.3,0-9.2,2.4-12c4.8-5.7,13.1-6.9,19.9-3.6c9.4,4.6,12.9,14.8,14.1,20.1
		c0.4,1.9-0.5,3.9-2.3,4.8l-7,3.3c-1,5.5-6.6,15.5-6.6,15.5"/>
	<path id="XMLID_10_" class="st0" d="M224.6,79.5c0.2,0.2,0.4,0.5,0.5,0.7l4.5,2.5c1,0.5,1.7,1.4,1.9,2.5l0.9,3.4"/>
	<polyline id="XMLID_9_" class="st0" points="206,108.3 176.3,104.2 146.1,96.8 	"/>
	<path id="XMLID_8_" class="st0" d="M154.2,121.2c19.2-8.3,35.3-2.5,35.3-2.5l10.2-11.2"/>
	<line id="XMLID_7_" class="st0" x1="91.7" y1="85.9" x2="99.4" y2="109.7"/>
	<path id="XMLID_6_" class="st0" d="M101.9,135c52.6,17.9,54.8-9.3,54.8-9.3c-8-22.3-60.5-15.7-60.5-15.7"/>
	<path id="XMLID_5_" class="st0" d="M138.3,87.8l38.4,6.3l32.6-1.9l15.8-4.8c2.5-0.8,5.3-0.3,7.4,1.2l7.9,10.1l-0.8,15.3
		c-0.2,2.9-1.5,5.6-3.7,7.6l-24.4,21.3c-3.9,3.4-8.9,5.2-14,5.2H38.9c0,0-27.5-1.7-37.1,8.3c0.1-0.1-0.3-2-0.3-2.2
		c-0.1-1.9,0.4-3.7,1.3-5.4c3.5-6.4,12.6-7.7,15.2-15c1.3-3.5,4.6-2.2,7.1-0.9c2.9,1.6,4.7,3.2,8.1,3.2c9.5-0.1,19.2-0.7,28.5-2.5
		c13.6-2.8,28.1-2.3,33.9-1.5"/>
	<path id="XMLID_4_" class="st0" d="M219.2,64.8c-0.9-0.2-3.1-0.4-5.2,0.9c-3.2,2-3.7,6.5-3,9.5c1.1,4.1,5.3,8,9.2,7.2
		c1.9-0.4,3.6-2,4.4-2.9"/>
	<path id="XMLID_2_" class="st0" d="M189.5,118.7c0,0,2.2,2.5,2.5,5"/>
</g>
</svg>
