<?xml version="1.0" encoding="utf-8"?>
<!-- Generator: Adobe Illustrator 22.0.1, SVG Export Plug-In . SVG Version: 6.00 Build 0)  -->
<svg version="1.1" id="Layer_1" xmlns="http://www.w3.org/2000/svg" xmlns:xlink="http://www.w3.org/1999/xlink" x="0px" y="0px"
	 viewBox="0 0 170 170" style="enable-background:new 0 0 170 170;" xml:space="preserve">
<style type="text/css">
	.st0{opacity:0;fill:#FFFFFF;}
	.st1{fill:#383330;}
</style>
<rect class="st0" width="170" height="170"/>
<g>
	<g>
		<path class="st1" d="M113.7,85.9c-16.1,0-29.1-13.1-29.1-29.1c0-0.6,0-1.2,0.1-1.8c0.1-1.7,1.5-2.9,3.2-2.8
			c1.7,0.1,2.9,1.5,2.8,3.2c0,0.5,0,1,0,1.5c0,12.8,10.4,23.1,23.1,23.1c12.8,0,23.1-10.4,23.1-23.1c0-12.7-10.4-23.1-23.1-23.1
			c-3,0-6,0.6-8.8,1.7c-1.5,0.6-3.3-0.1-3.9-1.6c-0.6-1.5,0.1-3.3,1.6-3.9c3.5-1.4,7.2-2.2,11-2.2c16.1,0,29.1,13.1,29.1,29.1
			C142.8,72.8,129.7,85.9,113.7,85.9z"/>
	</g>
	<g>
		<path class="st1" d="M79.2,59.3C79.2,59.3,79.2,59.3,79.2,59.3c-8.4,0-16.3-4.1-21.2-10.8c-8.5-11.7-5.8-28.1,5.9-36.6
			c4.5-3.3,9.8-5,15.3-5c8.4,0,16.3,4.1,21.2,10.8c4.1,5.7,5.7,12.6,4.6,19.5c-1.1,6.9-4.8,13-10.5,17.1
			C90,57.6,84.7,59.3,79.2,59.3z M79.2,13c-4.3,0-8.3,1.3-11.8,3.8c-9,6.5-11,19.2-4.5,28.2c3.8,5.2,9.9,8.4,16.4,8.4c0,0,0,0,0,0
			c4.3,0,8.3-1.3,11.8-3.8c4.4-3.2,7.2-7.8,8.1-13.2c0.9-5.3-0.4-10.7-3.6-15C91.8,16.1,85.6,13,79.2,13z"/>
	</g>
	<g>
		<path class="st1" d="M48,85.7c-1.4,0-2.7-0.1-4.1-0.3c-6.9-1.1-13-4.8-17.1-10.4c-4.1-5.6-5.8-12.6-4.7-19.5
			C24.3,41.2,37.7,31.4,52,33.7c1.6,0.2,3.1,0.6,4.6,1.2c1.6,0.5,2.4,2.3,1.8,3.8c-0.5,1.6-2.3,2.4-3.8,1.8
			c-1.1-0.4-2.3-0.7-3.5-0.9c-11-1.7-21.3,5.8-23.1,16.8c-0.8,5.3,0.5,10.7,3.6,15c3.2,4.4,7.9,7.2,13.2,8c5.3,0.8,10.7-0.5,15-3.6
			c4.4-3.2,7.2-7.9,8-13.2c0.2-1.4,0.3-2.8,0.2-4.2c-0.1-1.7,1.2-3.1,2.8-3.1c1.7-0.1,3.1,1.2,3.1,2.8c0.1,1.8,0,3.6-0.3,5.4
			c-1.1,6.9-4.8,13-10.4,17.1C58.9,84,53.5,85.7,48,85.7z"/>
	</g>
	<g>
		<path class="st1" d="M39.2,114.4c-2.1,0-4.1-0.3-6.1-0.9c-5.4-1.6-9.7-5.3-12.4-10.2c-5.4-10.2-1.5-22.9,8.6-28.3
			c1.5-0.8,3.3-0.2,4.1,1.2c0.8,1.5,0.2,3.3-1.2,4.1c-7.3,3.9-10,12.9-6.2,20.2c1.9,3.5,5,6.1,8.8,7.3c3.8,1.2,7.9,0.8,11.4-1.1
			c3.5-1.9,6.1-5,7.3-8.8c1.2-3.8,0.8-7.9-1.1-11.4c-0.4-0.8-0.9-1.6-1.5-2.3c-1-1.3-0.8-3.2,0.5-4.2c1.3-1,3.2-0.8,4.2,0.5
			c0.8,1,1.5,2.1,2.1,3.2c2.6,4.9,3.2,10.6,1.5,16c-1.6,5.4-5.3,9.7-10.2,12.4C46,113.6,42.6,114.4,39.2,114.4z"/>
	</g>
	<g>
		<path class="st1" d="M132,145.5c-10.9,0-19.7-8.8-19.7-19.7c0-10.9,8.8-19.7,19.7-19.7c10.9,0,19.7,8.8,19.7,19.7
			C151.7,136.6,142.9,145.5,132,145.5z M132,112.1c-7.6,0-13.7,6.1-13.7,13.7c0,7.6,6.1,13.7,13.7,13.7s13.7-6.1,13.7-13.7
			C145.7,118.2,139.6,112.1,132,112.1z"/>
	</g>
	<g>
		<path class="st1" d="M100,170H70.3c-0.8,0-1.6-0.3-2.2-0.9c-0.6-0.6-0.9-1.4-0.8-2.2c0-0.7,0.3-1.4,0.7-2.7
			c2-6.1,8.3-24.6-1.4-51.7c-6.3-17.7,0.7-28,1-28.4c0.8-1.1,2.2-1.5,3.5-1.1c1.3,0.4,2.1,1.7,2,3c0,0.1-0.7,11.5,3.2,18.4
			c2.2,3.9,5.1,7.5,7.3,10l11-37.2c0.3-0.9,0.9-1.6,1.8-2c0.9-0.3,1.9-0.2,2.7,0.3l5.5,3.5c1,0.6,1.5,1.7,1.4,2.8
			c-2.2,21.2-3.4,37.5-3.5,48.4c0,2.8,0,5.9,0,9.3c3.9-0.6,8.3-2.4,11.6-7.2c0.9-1.3,2.5-1.7,3.9-1c1.3,0.7,1.9,2.3,1.4,3.8
			c-0.3,0.6-6,14.9-16.6,21.4c0.1,3.4,0.2,6.9,0.3,10.3c0,0.8-0.3,1.6-0.8,2.2C101.6,169.7,100.8,170,100,170z M74.4,164h22.5
			c-0.1-3-0.2-6-0.2-9c0-1.1,0.6-2.2,1.6-2.7c3.3-1.7,6.2-4.5,8.5-7.5c-2.8,0.8-5.3,1-7.2,1h-0.1c-1.6,0-3-1.3-3-3
			c-0.1-4.7-0.1-8.9-0.1-12.6c0.1-10.8,1.2-26.7,3.3-47.2l-0.6-0.4l-11.3,38.3c-0.3,1-1.1,1.8-2.1,2c-1,0.3-2.1,0-2.8-0.7
			c-0.3-0.3-6.8-6.4-11.4-14.1c0.2,0.7,0.5,1.4,0.7,2.2C81.7,136.9,77,155.9,74.4,164z"/>
	</g>
</g>
</svg>
