<?xml version="1.0" encoding="utf-8"?>
<!-- Generator: Adobe Illustrator 22.0.1, SVG Export Plug-In . SVG Version: 6.00 Build 0)  -->
<svg version="1.1" id="Layer_1" xmlns="http://www.w3.org/2000/svg" xmlns:xlink="http://www.w3.org/1999/xlink" x="0px" y="0px"
	 viewBox="0 0 170 170" style="enable-background:new 0 0 170 170;" xml:space="preserve">
<style type="text/css">
	.st0{opacity:0;fill:#FFFFFF;}
	.st1{fill:#383330;}
</style>
<rect class="st0" width="170" height="170"/>
<g>
	<g>
		<g>
			<path class="st1" d="M87.5,44.1c-1.2,0-2.4-0.8-2.8-2c-0.3-1-0.6-1.6-0.6-1.6c-0.6-1.5,0-3.2,1.5-3.9c1.5-0.7,3.2,0,3.9,1.5
				c0.3,0.7,0.6,1.5,0.9,2.3c0.5,1.6-0.4,3.2-2,3.7C88.1,44.1,87.8,44.1,87.5,44.1z"/>
		</g>
		<g>
			<path class="st1" d="M53.2,170c-1.3,0-2.5-0.9-2.9-2.1c-0.4-1.3,0.1-2.7,1.3-3.4l0,0c0.2-0.1,16-10.3,17-29
				c0.6-12.3-2.5-17.4-6.1-23.3c-2.1-3.4-4.2-6.9-5.7-11.9C52.8,86.3,61.5,72,72,64c7.2-5.5,14.8-14.6,12.6-22
				c-0.5-1.6,0.4-3.2,2-3.7c1.5-0.5,3.2,0.3,3.7,1.9c1.7,4.8,5,16.8,0.2,26c-1.5,2.8-3.3,5.3-5.2,7.8c-5.1,6.9-9.5,12.9-4.8,23.4
				c2.7,5.9,6.9,10,11.4,14.3c1,1,2,2,3,3c3.7-4.7,10.5-11.4,20-13.3c1.2-0.3,2.5,0.3,3.2,1.4c0.7,1.1,0.5,2.5-0.3,3.5
				c-0.1,0.2-13.2,15.8-11.9,32.7c1.4,18.9-2.5,27.9-2.7,28.3c-0.5,1-1.5,1.7-2.7,1.8L53.2,170C53.3,170,53.3,170,53.2,170z
				 M86.9,56.9c-3.7,5.7-8.9,10-11.3,11.9c-8.8,6.8-16.3,18.6-13,29.8c1.2,4.2,3.1,7.3,5.1,10.5c3.8,6.2,7.7,12.6,7,26.8
				c-0.7,13.2-7.5,22.5-12.9,28l36.7-0.8c0.9-3.2,2.6-10.9,1.6-23.6c-0.8-11.1,3.4-21.4,7.3-28.3c-4.8,3.3-8,7.6-9.5,9.9
				c-0.5,0.8-1.4,1.3-2.3,1.3c-0.9,0.1-1.8-0.3-2.4-1c-1.6-1.8-3.4-3.5-5.3-5.3c-4.7-4.5-9.6-9.2-12.7-16.2
				c-6.2-13.7,0-22.1,5.4-29.4c1.8-2.4,3.4-4.6,4.7-7C86.2,61.4,86.8,59.1,86.9,56.9z"/>
		</g>
	</g>
	<g>
		<path class="st1" d="M76.7,92c-1.5,0-2.8-1.2-3-2.7c-0.2-1.6,1-3.1,2.7-3.3c18.5-1.9,32.4-17.3,32.4-35.9
			c0-19.9-16.2-36.1-36.1-36.1c-19.9,0-36.1,16.2-36.1,36.1c0,14.5,8.7,27.6,22,33.3c1.5,0.6,2.2,2.4,1.6,3.9
			c-0.6,1.5-2.4,2.2-3.9,1.6c-15.6-6.6-25.7-21.8-25.7-38.8C30.7,26.9,49.6,8,72.8,8c23.2,0,42.1,18.9,42.1,42.1
			c0,21.7-16.3,39.7-37.8,41.9C76.9,92,76.8,92,76.7,92z"/>
	</g>
	<g>
		<path class="st1" d="M121.4,116.4c-3.7,0-7.4-1.1-10.5-3.4c-1.3-1-1.6-2.8-0.7-4.2c0,0,0.1-0.1,0.1-0.1c0,0-0.1,0.1-0.1,0.1
			c-1.4,0.9-3.3,0.4-4.1-1c-2.5-4.1-3.2-8.9-2.1-13.6c1.1-4.7,4-8.6,8.1-11.1c8.5-5.1,19.5-2.4,24.6,6.1c2.5,4.1,3.2,8.9,2.1,13.6
			c-1.1,4.7-4,8.6-8.1,11.1C127.8,115.5,124.6,116.4,121.4,116.4z M112.6,107.5c0.6,0,1.2,0.2,1.8,0.6c3.9,2.8,9.1,3,13.2,0.6
			c2.7-1.7,4.7-4.3,5.4-7.4s0.3-6.3-1.4-9c-3.4-5.6-10.8-7.5-16.4-4c-2.7,1.7-4.7,4.3-5.4,7.4c-0.8,3.1-0.3,6.3,1.4,9
			c0.7,1.1,0.5,2.5-0.2,3.4C111.4,107.7,112,107.5,112.6,107.5z"/>
	</g>
</g>
</svg>
