<?xml version="1.0" encoding="utf-8"?>
<!-- Generator: Adobe Illustrator 22.0.1, SVG Export Plug-In . SVG Version: 6.00 Build 0)  -->
<svg version="1.1" id="Layer_1" xmlns="http://www.w3.org/2000/svg" xmlns:xlink="http://www.w3.org/1999/xlink" x="0px" y="0px"
	 viewBox="0 0 1614.1 472.6" style="enable-background:new 0 0 1614.1 472.6;" xml:space="preserve">
<style type="text/css">
	.st0{fill:#292827;}
</style>
<g>
	<path class="st0" d="M89.3,336c1.5-2.6,2-5.3,2.4-8.1c0.4-3.2,0.5-6.4,0.8-9.6c0.7-9.8,3-19.3,5.8-28.6
		c3.7-12.3,8.7-24.1,13.3-35.9c7.1-17.9,15.3-35.3,23.6-52.8c1.5-3.2,2.9-6.4,4.6-9.5c0.9-1.7,2.2-3.3,3.6-4.7
		c1.7-1.8,4-2.2,6.1-0.9c2.2,1.4,4.3,3,6.1,4.9c7.8,8.1,14.7,16.9,21.4,25.9c15.1,20.2,25.9,42.4,32.4,66.7
		c1.8,6.7,2.8,13.6,3.6,20.5c0.7,6,1.3,12.1,1.9,18.1c0.2,1.9,0.7,3.8,2.4,5.1c1.6-0.8,2.5-2.1,3-3.7c3.8-11.8,7.8-23.5,9.3-35.9
		c0.7-5.7,2-11.3,2.8-17c0.9-6.4,1.7-12.8,2.2-19.3c0.9-10.8,0.8-21.6,0-32.4c-1.1-16.6-4-32.8-8.3-48.9c-3.6-13.3-8.6-26.1-13.5-39
		c-13.8-36.6-28.2-72.9-43.5-108.9c-1.3-3.1-2.8-6.1-4.1-9.2c-1-2.4-1.8-4.8-1.7-7.4c0.1-4.3,3.2-6.6,7.3-5.2c1.4,0.5,2.8,1.2,4,2.1
		c2,1.7,4.1,3.4,5.8,5.4c29.8,35.3,56.7,72.8,81.3,111.9c5.3,8.5,10,17.3,14.7,26.1c5.1,9.6,10.6,19,14.8,29
		c6.4,15.2,12.6,30.4,16.8,46.4c3.2,12.1,5.1,24.4,5.1,36.9c0,13.3-2.8,26-7.5,38.4c-7.9,20.8-18.8,40-30.8,58.7
		c-13.2,20.5-27.7,39.9-42.6,59.2c-9.2,11.9-18.3,23.8-27.7,35.6c-5.9,7.5-12.4,14.4-19.4,20.9c-0.7,0.6-1.6,1.2-2.4,1.3
		c-2.7,0.4-3.3-0.2-4-2.8c-0.7-2.6-0.2-5.1,0.3-7.6c2.5-12.5,6.7-24.5,11-36.5c3.5-9.8,6.8-19.6,9.1-29.8c1.5-6.8,1.6-13.5,0.6-20.3
		c-2.7-19.6-7.8-38.7-13-57.7c-2.2-8-5.8-15.4-10.1-22.5c-3.2-5.3-6.6-10.4-10-15.5c-1.9-2.9-3.8-5.7-5.9-8.5
		c-1-1.4-2.2-2.8-3.5-3.9c-1.9-1.6-4.1-1.4-5.9,0.2c-0.9,0.8-1.7,1.7-2.3,2.8c-8.1,13-16.2,25.9-24,39c-5.5,9.2-9.8,19.1-11.9,29.7
		c-0.9,4.7-1.4,9.5-2,14.2c-0.9,7.5-2,15.1-1.8,22.7c0.1,6.8,1.3,13.4,5,19.2c0.7,1.2,1.5,2.3,2.3,3.4c7.7,9.9,13.9,20.7,20.4,31.4
		c0.9,1.5,1.6,3.2,2,4.8c0.9,3.4-1.1,5.5-4.6,5.1c-2.6-0.3-4.8-1.7-7-2.9c-8.8-5-17.2-10.4-25.5-16.1c-17.4-12-34.4-24.5-50.6-38.1
		c-1.2-1-2.5-2-3.6-3.1c-11-11-22.1-21.8-31.2-34.5c-4.7-6.6-9.3-13.3-11.6-21.2c-1.4-5-2.4-10.1-3.1-15.2
		c-1.7-11.7-2.3-23.4-2-35.2c0.3-13.5,2.1-26.8,5.4-39.8c2.1-8.1,3.8-16.4,6.4-24.3c4.5-13.8,11-26.7,17.7-39.6
		c17.8-34.2,40.5-65,66.7-93.2c6.7-7.2,13.5-14.3,20.3-21.4c1.5-1.6,3.3-3,5-4.5c3.5-3.1,7-6.1,10.5-9.2c1-0.9,2-1.8,3.1-2.6
		c0.9-0.7,1.9-1.3,2.9-1.7c1.7-0.8,3.6-1.1,5.2,0.3c1.5,1.4,1.6,3.2,0.8,4.9c-1.2,2.6-2.4,5.3-4.1,7.6c-9,12.6-17.4,25.7-25.5,38.9
		c-12.9,21-24.1,42.9-32.7,66.1c-5.5,15.1-9.3,30.6-11.4,46.5c-1.5,11.3-2.9,22.5-4.1,33.8c-1.4,12.9-0.7,25.7,1.5,38.5
		c2.6,15.4,6.9,30.4,12,45.1c0.9,2.6,1.7,5.3,2.7,7.9c0.8,2.1,1.9,4.1,3,6C86.3,334.2,87.6,335.4,89.3,336z"/>
	<path class="st0" d="M735.9,43.7c13.5-0.2,27,2.7,39.7,8.5c15,6.9,27.8,16.6,37.9,29.8c8.4,10.9,13,23.2,13.4,37
		c0.1,2.5-0.1,5.1-0.6,7.6c-0.7,3.4-3.4,4.3-6.1,2.2c-1.2-0.9-2.2-2.1-3.1-3.3c-1.3-1.9-2.3-4-3.5-6c-5.1-8-12.2-12.3-21.8-11.7
		c-4,0.2-7.8,1.5-11.5,3.1c-13.3,5.7-22.8,15.4-29.2,28.2c-5.1,10.3-6.9,21.3-6,32.8c1.1,13.3,5.3,25.6,10.5,37.7
		c6.6,15.1,14.6,29.3,23.1,43.3c1.9,3.1,3.8,6.3,5.8,9.4c1,1.6,2.2,3.1,3.5,4.6c2.1,2.4,4.8,3.2,7.8,2.5c3.7-0.8,7.3-1.8,10.9-2.9
		c4.6-1.4,9.1-2.9,13.7-4.4c3.4-1.1,6.7-2.1,10.3-2.3c5.4-0.3,7.4,1.9,6.3,7.3c-0.2,1.2-0.5,2.3-1,3.5c-1.5,3.8-3,7.6-4.6,11.3
		c-0.4,1-0.9,1.9-1.5,2.7c-2.1,3.2-4.4,3.6-7.4,1.3c-0.6-0.5-1.2-1.1-1.9-1.5c-3.5-2.3-7.2-2.4-10.9-0.6c-1.8,0.8-2.1,1.5-1.4,3.2
		c0.8,2.1,1.7,4.3,3,6.2c1.4,2.1,3.2,4,5,5.8c3,3.1,5.5,6.4,7.6,10.1c2,3.5,4.1,6.9,6.2,10.2c6,9.4,10.9,19.4,13.2,30.4
		c3.1,15.2,1.5,29.7-6.3,43.3c-2.5,4.3-5.6,7.9-9.4,11.1c-7.3,6.2-15.5,7.5-24.5,4.9c-4.4-1.3-8.2-3.5-11.4-6.8
		c-4.8-5.1-8.8-10.7-12.1-16.9c-0.9-1.6-1.5-3.4-1.8-5.2c-0.8-3.6,1.5-5.8,5.1-5.1c1.3,0.2,2.5,0.6,3.7,1c2.9,0.9,5.5,0.2,7.5-1.8
		c1.5-1.5,3-3.2,3.9-5.1c4.8-9.8,8-20.1,8.1-31.1c0.1-3.6-0.6-7.3-1.2-10.9c-1-5.7-2-11.5-3.3-17.2c-1.8-7.6-5.9-14-11.2-19.5
		c-2.8-2.9-6-5.1-10.2-5.1c-2.5,0-5.1,0.5-7.6,1.1c-8.7,2.1-17.3,4.4-26,6.5c-2,0.5-4.1,0.6-6.2,0.7c-1.6,0.1-3-0.5-3.7-2.1
		c-0.6-1.6-0.2-3.3,1.4-4.4c1.7-1.2,3.6-2.2,5.5-2.8c3.6-1.2,7.4-1.9,11.1-3c3.3-1,6.6-2,9.8-3.2c1.3-0.5,2.6-1.3,3.6-2.2
		c1.4-1.2,1.7-2.5,0.8-4.1c-1.1-1.9-2.3-3.6-3.7-5.3c-7.6-9-15.3-17.8-22.7-26.9c-9.1-11.2-18.2-22.3-26.7-33.9
		c-11.2-15.1-21.3-30.9-29.7-47.8c-5.5-11.1-10.1-22.6-12.4-34.9c-2.1-10.9-2.7-21.9-0.3-32.9c1.3-6.2,3.8-11.9,7.5-17
		c5.8-8,12.8-14.7,21-20.1c8.4-5.6,17.8-8.2,27.7-9.1C731.6,43.9,733.5,43.8,735.9,43.7z"/>
	<path class="st0" d="M695,290.1c-0.7,29.6-11.8,52.3-33.3,70.1c-8.5,7-18.1,12.3-28.1,16.8c-1.6,0.7-3.3,1.2-5,1.4
		c-2.6,0.4-4-0.5-5.2-2.9c-0.4-0.8-0.7-1.6-1.1-2.4c-1.2-2.2-2.7-3-5.1-2.4c-1.5,0.4-3.1,0.9-4.5,1.6c-6.4,2.8-12.9,4.6-19.8,5.4
		c-9.1,1-17.9-0.1-26.2-4.1c-7.1-3.5-13.4-8.1-18.7-14c-7.1-7.7-10.3-16.7-9.6-27.2c0.7-9.6,2.6-18.8,6.1-27.8
		c1.3-3.3,2.8-6.5,4.5-9.5c6.2-10.7,13.9-20.3,22.8-28.9c6.9-6.6,14.9-11.5,24.3-13.9c9.6-2.4,19-1.7,28.4,0.9
		c1.4,0.4,2.7,1.3,4.1,2c1.8,0.9,3.5,2,5.4,2.6c3.2,1.1,5.3-0.2,5.4-3.6c0.1-2.8-0.1-5.8-0.6-8.6c-3.2-16.2-8.1-31.9-14.4-47.2
		c-13.1-31.8-28.7-62.3-47-91.4c-6.9-11-13.9-22.1-20.9-33.1c-1.2-1.9-2.6-3.6-3.8-5.5c-1.2-1.9-2.3-3.8-3.2-5.9
		c-0.6-1.3-0.7-2.9,0.6-4c1.2-1.1,2.8-1.4,4.3-0.8c1.3,0.5,2.6,1.2,3.7,2.1c13.9,11.6,27.4,23.6,39.5,37.1
		c5.1,5.7,10.4,11.1,15.5,16.7c2.9,3.1,5.7,6.3,8.3,9.6c6.3,8,12.7,16.1,18.8,24.3c16.5,22.4,30.6,46.3,40.1,72.6
		c6.1,16.8,10.5,34,13.1,51.7C694.2,278.4,694.6,285.1,695,290.1z M587.1,313.3c0.2,3.4,0.4,6.9,0.8,10.3c0.8,7,3.2,13.5,8,18.9
		c3.5,4,7.8,6.7,13,7.5c2.7,0.4,5.4,0.4,8.1,0.2c8.8-0.9,15.3-5.2,19.1-13.3c2.3-4.9,3.3-10.2,3.2-15.6c0-5-0.3-10.1-0.9-15
		c-1-8-3.1-15.8-6.7-23.1c-1.1-2.3-2.5-4.5-3.9-6.6c-1.1-1.6-2.4-3-3.8-4.3c-5.6-5.1-11.4-5.8-17.7-1.5c-8,5.6-13.9,12.9-16.6,22.5
		C587.9,299.8,587.3,306.5,587.1,313.3z"/>
	<path class="st0" d="M447.7,226.8c0.1,17.8-2.8,34.2-7.7,50.4c-4.8,15.9-10.2,31.6-17.3,46.7c-1.2,2.6-2.6,5.1-3.9,7.7
		c-3.6,6.9-7.2,13.9-10.9,20.8c-1.2,2.3-2.5,4.6-4,6.8c-0.8,1.2-1.8,2.3-2.9,3.2c-1.8,1.5-4.1,1.4-6,0.1c-0.5-0.4-1-0.8-1.5-1.3
		c-1.7-1.6-3.7-2-5.8-1.3c-2.4,0.8-4.8,1.8-7.1,3c-8.6,4.2-17.4,8.1-26.6,10.9c-10.8,3.2-21.7,4.5-32.9,3.6
		c-4.6-0.4-9.2-1.4-13.5-3.2c-12.5-5.5-18.3-18-14.2-31.1c2.2-7.2,6.2-13.3,11.6-18.5c6.6-6.3,14.3-11.1,22.4-15
		c7.2-3.5,14.5-6.7,22.4-8.5c2.1-0.5,4.2-1.2,6.1-2.2c2.7-1.3,2.9-3.2,0.6-5.2c-0.8-0.7-1.8-1.3-2.7-2c-12.7-9.5-21.6-21.7-24-37.6
		c-3-20.1,1.1-38.9,13-55.8c9.2-13,20.8-23.1,35.1-30.1c10.3-5,21.2-6.7,32.5-5.1c11.3,1.6,20,7.8,26.1,17.3
		c4.4,6.7,6.9,14.2,8.6,22C447.1,210.7,447.9,219.1,447.7,226.8z M408.1,277.4c-0.3-3.1-0.4-5.6-0.7-8c-0.5-3.7-1.3-7.3-3.2-10.5
		c-2.9-4.7-8.1-5.8-12.6-2.8c-1.8,1.2-3.1,2.8-3.8,4.8c-0.6,1.7-1,3.6-1.1,5.4c-0.3,5,1.1,9.8,2.8,14.5c2.1,5.7,4.4,11.3,5.9,17.2
		c0.3,1.2,0.9,2.4,1.5,3.5c0.4,0.8,0.9,1.5,1.5,2.1c1.9,1.9,4.6,1.5,5.7-0.9c0.6-1.2,0.8-2.6,1-3.9c0.7-4.2,1.3-8.4,1.9-12.6
		C407.4,283.2,407.8,280,408.1,277.4z M388.3,319.1c0,0.1,0,0.2,0,0.3c-1,0-1.9-0.1-2.9,0c-5.7,0.6-10.9,2.4-14.9,6.8
		c-3,3.3-4.2,7.2-3.1,11.5c1.5,6.1,7.3,9.6,13.8,8.6c4.6-0.7,8.7-2.6,12.5-5.1c4.9-3.2,6.7-8,6.9-13.5c0.1-4.1-1.9-6.6-5.9-7.6
		C392.6,319.5,390.4,319.4,388.3,319.1z"/>
	<path class="st0" d="M1306.2,297.9c-0.1,18.5-4.3,35.2-14.1,50.1c-6.7,10.3-15.6,18.7-25.4,25.9c-3.9,2.9-8.1,5.4-12.3,7.9
		c-1.8,1.1-3.7,1.9-5.7,2.4c-3.3,1-5.2-0.2-6.2-3.5c-0.2-0.8-0.4-1.6-0.7-2.3c-0.7-1.8-1.8-2.6-3.7-2.4c-1.2,0.1-2.4,0.3-3.5,0.7
		c-1.8,0.6-3.6,1.3-5.3,2.3c-6.4,3.4-13.2,4.8-20.3,4.7c-18.2-0.1-32.7-7.6-43.9-21.8c-3.4-4.4-5.2-9.5-5.9-15
		c-1.6-13.2,0.2-25.8,5.6-38c5.6-12.5,12.7-24,22.6-33.7c9.4-9.1,20.3-15.6,33.3-17.9c9.8-1.8,19.4-0.8,28.5,3.7
		c1.4,0.7,2.9,1.3,4.5,1.7c3.2,0.8,4.9-0.4,4.9-3.7c0-2.3-0.3-4.6-0.7-6.9c-4.5-23.3-12.2-45.7-22-67.3c-4.4-9.8-9.3-19.5-13.9-29.2
		c-0.7-1.4-1.4-2.9-2.3-4.2c-11.6-18.9-22-38.6-34.5-57.1c-4.5-6.6-8.8-13.4-13-20.1c-1.1-1.8-2-3.8-2.9-5.8
		c-0.3-0.8-0.4-1.7-0.4-2.6c0-2.1,1.7-3.5,3.7-3.1c1.1,0.2,2.3,0.7,3.3,1.3c1.5,1,3,2.1,4.4,3.4c6.4,6.1,12.7,12.2,19,18.3
		c3.2,3.1,6.4,6.1,9.5,9.2c1.9,1.9,3.8,3.9,5.5,6c5.2,6.3,10.2,12.8,15.3,19.1c23.4,28.5,43,59.2,57,93.4
		c6.7,16.3,12,33.1,15.3,50.4c1.7,8.5,2.8,17.2,4,25.8C1306.2,292.8,1306.1,295.8,1306.2,297.9z M1210.5,324.5
		c0.1,1.3,0.2,3.6,0.3,5.9c0.6,8.9,4.1,16.5,10.4,22.8c3.2,3.3,7.2,5.3,11.8,6c3.1,0.4,6.2,0.3,9.3-0.4c9.2-2,15.6-7.2,17.8-16.7
		c0.8-3.6,1.4-7.2,1.6-10.9c0.3-4.5,0.3-9-0.1-13.4c-1.1-10.1-4.7-19.5-9.2-28.6c-1.4-2.8-3.3-5.5-5.4-7.8
		c-4.8-5.2-10.4-6.1-16.4-2.5c-8.1,4.9-14.1,11.5-16.7,20.8C1211.5,307.6,1210.8,315.5,1210.5,324.5z"/>
	<path class="st0" d="M1567,382.3c-13,0-25.9,0-38.9,0c-1.7,0-3.5-0.2-5.2-0.6c-3.7-0.8-5.2-2.9-4.4-6.6c0.5-2.2,1.2-4.5,2.2-6.6
		c2.4-5.4,4.7-10.9,7.4-16.1c3.5-6.9,5.1-14.2,5.6-21.9c0.7-10.9,1.6-21.9,2.1-32.8c0.3-6.8,0.3-13.6,0.3-20.4c0-2.5-1-4.8-2.3-7
		c-1.7-2.7-3.9-5-6.5-7c-8.8-6.7-18.7-1.9-22.5,4.4c-2.2,3.7-3.6,7.7-4.3,11.9c-1.6,9.3-3.1,18.6-4.4,27.9
		c-0.8,6.1-1.2,12.2-1.6,18.4c-0.7,11.1,0.6,21.9,4.6,32.3c1.4,3.7,3,7.4,4.3,11.2c0.8,2.2,1.5,4.4,1.8,6.7c0.4,3.4-1.2,5.2-4.7,5.7
		c-1,0.1-2.1,0.2-3.1,0.2c-7.9-0.2-15.8,0.9-23.6,1.9c-5.7,0.7-11.4,1.3-17.2,0.3c-0.1,0-0.2,0-0.2,0c-6.9-1.4-9.7-7.6-6.1-13.7
		c0.1-0.1,0.2-0.3,0.3-0.4c4.3-4.9,6-11,7.5-17.2c1.6-6.4,3.4-12.7,4.1-19.2c0.8-7.3,1-14.7,0.5-22c-0.8-10.6-2.7-20.9-5.9-31
		c-3.7-11.8-8.9-22.9-16.9-32.6c-3.2-3.8-6.7-7.3-10.7-10.3c-2.8-2.1-5.8-3.9-9.1-5.3c-2.6-1.1-5.1-2.3-7.5-3.8
		c-1.3-0.7-2.5-1.8-3.3-3.1c-1.4-2.1-0.6-4,1.9-4.4c0.9-0.1,1.9,0,2.8,0.2c6,1.2,11.7,3.4,17.2,5.8c11.9,5.1,24.3,8.9,36.6,13
		c6.7,2.2,13.5,2.3,20.4,1.3c5.4-0.8,10.8-2,16.2-1.2c5.1,0.8,9.3-0.7,13.6-3.3c9.2-5.6,19.2-9,29.9-10.2c9.6-1.1,19.2-0.9,28.5,1.9
		c2.4,0.7,4.7,1.6,7,2.5c10.1,4.1,16.1,11.8,19.1,22c2.1,7.3,2.4,14.8,1.8,22.4c-1.4,15.5-6,30-13.6,43.6
		c-3.6,6.6-7.2,13.2-10.5,19.9c-2.3,4.6-4.3,9.5-5.2,14.6c-0.4,2-0.5,4.1-0.4,6.2c0.2,5.4,3.1,9.1,7.9,11.4
		c3.9,1.9,8.1,2.5,12.3,2.8c4.3,0.3,8.6,0.3,12.9,0.5c1.4,0.1,2.9,0.4,4.2,0.8c1.3,0.4,2.1,1.4,2.2,2.8c0,1.5-0.7,2.5-2,3
		c-1.1,0.4-2.3,0.7-3.5,0.9c-1,0.2-2.1,0.1-3.1,0.1C1592.7,382.3,1579.8,382.3,1567,382.3C1567,382.3,1567,382.3,1567,382.3z"/>
	<path class="st0" d="M544.4,185.4c0.5,13.5-3.7,27.9-10.6,41.7c-5.1,10.1-10.4,20-15.2,30.2c-6.8,14.3-12.9,28.9-17.8,44
		c-3.4,10.4-5.1,21.1-4.6,32.1c0.1,2.5,0.3,5,0.7,7.4c1.1,7,4.9,12.4,10.1,17c4.8,4.2,10.4,7.2,16.4,9.3c1.6,0.6,3.2,1.2,4.7,1.9
		c0.9,0.4,1.8,1,2.6,1.7c1.2,0.9,1.5,2.2,1.1,3.7c-0.3,1.3-1.4,1.9-2.6,2.3c-2.5,0.7-5,0.4-7.4-0.1c-6.5-1.3-12.9-3.1-19-5.7
		c-4.9-2.1-9.1-5.4-12.9-9.1c-12.5-12.4-21.1-27.1-24.9-44.3c-2-9.2-2.4-18.5-2.2-27.9c0.5-18.8,3.8-37,9.9-54.8
		c4.2-12.3,8.9-24.5,13.4-36.7c4.2-11.3,8-22.6,10.7-34.3c3-12.9,4-25.9,2.6-39c-1.7-15-5.1-29.6-11.2-43.5c-1.9-4.4-4.3-8.6-7-12.5
		c-2.7-3.9-5.2-7.9-7.6-12c-1-1.6-1.7-3.5-2.1-5.3c-0.5-2.2,0.6-3.2,2.8-2.8c0.9,0.1,1.9,0.5,2.7,1c1.5,1,3,2.1,4.3,3.4
		c3.1,3.3,6,6.6,8.9,10c5.2,6.2,10.1,12.6,15.4,18.7c18.7,21.3,30.1,46.2,35.8,73.8C543.2,164.6,544.4,173.8,544.4,185.4z"/>
	<path class="st0" d="M1415.3,379.5c0.1,2.7-1.2,4.3-3.1,5.6c-5,3.2-10.2,5.9-16.1,7c-17.3,3.3-33.7,1.1-49.2-7.5
		c-8.9-5-16.1-11.8-21.3-20.6c-5.3-8.9-9.5-18.3-11.5-28.5c-1.3-6.6-1.4-13.4-1.2-20.1c0.3-9,1.2-17.9,3.8-26.5
		c4.7-16.1,12.7-30.2,25.1-41.6c8.6-7.9,18.5-13.6,30.1-15.4c19.9-3.1,37.9,1.1,53.7,14c8.2,6.7,14,14.8,17.3,24.8
		c2.7,8.1,5.4,16.3,4.6,25c-0.4,4-1,8.1-1.9,12.1c-1.4,5.8-3,11.6-4.8,17.3c-0.9,2.7-2.2,5.3-3.8,7.7c-2.1,3.4-5.4,4.8-9.3,4
		c-3.4-0.7-6.8-1.7-10.1-2.8c-15.3-4.9-30.7-5.5-46.3-1.7c-1.2,0.3-2.3,0.7-3.4,1.1c-4.5,1.7-6.9,5.2-7.1,9.9
		c-0.1,2.9,0.1,5.9,0.7,8.8c3,14.6,12.5,22.9,26.3,26.9c6.9,2,13.8,2.4,20.8,0.4C1410.7,378.7,1413,378.7,1415.3,379.5z
		 M1401.7,287.9c0-7.4-0.6-14.7-2-21.9c-1-5.1-2.4-10.1-5.1-14.6c-1.1-1.8-2.5-3.6-4.1-4.9c-3.2-2.7-7.3-2.5-10.5,0
		c-2.8,2.2-5.1,5-6.5,8.2c-1.7,3.8-3.4,7.8-4.5,11.8c-3.4,12.7-6,25.7-7.2,38.8c-0.2,2.2-0.2,4.5,0.1,6.7c0.5,4,2.5,5.5,6.5,4.8
		c2.7-0.4,5.3-1.3,7.8-2.2c2.6-0.9,5.2-1.5,7.9-1.8c2.7-0.3,5.4-0.7,8.1-1.1c3.9-0.7,6.4-3,7.7-6.7c0.3-1,0.7-2,0.9-3
		C1401.8,297.3,1401.8,292.6,1401.7,287.9z"/>
	<path class="st0" d="M1018.3,317.3c0.4-15.1,2.9-29.8,8.9-43.7c4.7-10.9,11.5-20.3,20-28.5c8.6-8.3,18.8-13.3,30.6-15.4
		c12.3-2.2,24.5-1.7,36.1,2.7c20.6,7.8,33,22.9,38,44.2c2.7,11.6,1.7,23-1.2,34.4c-0.9,3.6-2,7.2-3.1,10.8c-0.7,2-1.6,4-2.6,5.9
		c-3,5.4-6.8,7.1-12.8,5.8c-2.8-0.6-5.5-1.5-8.3-2.4c-8.2-2.6-16.5-4.3-25.1-4.8c-4.3-0.3-8.6,0.4-12.8,1.5
		c-3.4,0.9-6.8,1.8-10.2,2.7c-1.1,0.3-2.1,0.6-3.2,1c-4.4,1.6-6.8,4.7-6.6,9.5c0.6,14.5,6,26.2,19.9,32.7c6.9,3.2,14.1,5.1,21.8,4.5
		c1.5-0.1,3-0.1,4.6,0c1.2,0.1,2.4,0.4,3,1.7c0.6,1.4,0.1,2.6-0.9,3.5c-1.5,1.3-3,2.6-4.7,3.6c-3.9,2.2-8.3,3-12.7,3.3
		c-9.6,0.7-19.2,0.3-28.6-2.3c-7.7-2.1-15-5.6-21.9-9.6c-3.9-2.2-6.9-5.5-9.4-9.1c-8.6-12.2-15-25.3-17.6-40.1
		C1018.6,325.3,1018.6,321.3,1018.3,317.3z M1108.5,285.5c-0.2,0-0.3,0-0.5,0c0-1.1,0-2.2,0-3.4c-0.1-6.4-0.7-12.8-2-19
		c-1.1-5.1-2.6-10.1-5.5-14.5c-1.6-2.5-3.6-4.5-6.3-5.7c-3.2-1.5-6.2-1.2-8.6,1.4c-1.7,1.8-3.3,3.7-4.6,5.8
		c-4.1,6.6-6.7,13.9-8.8,21.4c-2.3,8.4-3.6,17-4.8,25.6c-0.4,2.9-0.9,5.8-1.2,8.8c-0.2,2.4,0,4.8,1.3,7c0.9,1.5,2,2.5,4,2.4
		c2.7-0.1,5.2-0.7,7.7-1.8c3.8-1.6,7.8-2.3,11.9-2.7c2.8-0.3,5.5-0.8,8.2-1.4c3.6-0.8,5.8-3.1,6.9-6.6c0.3-0.8,0.6-1.7,0.7-2.5
		C1107.5,295.3,1108,290.4,1108.5,285.5z"/>
	<path class="st0" d="M894.4,318.9c0.6,6.4,1.3,13.6,1.9,20.8c0.7,9.1,2.4,18.1,3.9,27c0.3,1.7,0.3,3.5,0.2,5.3
		c-0.2,3.4-2.4,5.2-5.8,4.7c-1.2-0.2-2.4-0.5-3.5-0.9c-1.1-0.4-2.2-0.9-3.3-1.5c-5.3-2.8-10.6-5.6-15.9-8.5c-1.7-0.9-3.3-2-4.8-3.2
		c-2.1-1.7-3.1-3.9-3.2-6.7c-0.2-4.2,0.6-8.3,1.2-12.4c1.4-9.1,2.8-18.2,4.2-27.2c1.1-7.3,2.2-14.7,3.1-22.1c1-8,1.7-16.1,0.2-24.1
		c-0.5-2.7-1.3-5.3-2.1-7.8c-1-3.1-2.9-5.7-5.4-7.8c-1.6-1.3-3.1-2.7-4.5-4.3c-2.2-2.5-2-5,0.8-6.9c1.8-1.2,3.7-2.2,5.8-2.9
		c7.3-2.5,14.7-4.8,22.1-7.1c3.5-1.1,6.8-0.9,9.6,1.8c2,1.9,4.3,2,6.6,0.6c1.6-1,3.3-2,4.8-3.1c3.2-2.2,6.7-3.3,10.6-3.4
		c6.3-0.3,12.6,0,18.8,1.6c2.7,0.7,5.4,1.6,7.7,3.3c1.7,1.3,3,2.8,3.2,5.1c0.1,2.2-0.7,3.7-2.7,4.7c-0.5,0.2-1,0.5-1.6,0.6
		c-2.9,0.6-4.8,2.4-6.3,4.8c-1.2,1.9-2.4,3.8-3.4,5.8c-1.1,2.2-1.7,4.5-1.7,6.9c0,1.8-0.1,3.5-0.4,5.2c-0.5,2.6-2.8,3.4-4.9,1.9
		c-0.8-0.6-1.4-1.3-1.9-2.1c-0.8-1.2-1.3-2.6-2.2-3.7c-1.3-1.8-2.6-3.7-4.2-5.1c-4.2-3.7-9.6-3.4-13.6,0.5c-1.9,1.9-3.2,4.2-4.3,6.6
		c-1.9,4.4-3,8.9-3.8,13.6c-1.5,9.1-3,18.3-4.2,27.5C894.7,310.1,894.7,314.1,894.4,318.9z"/>
	<path class="st0" d="M1039.4,160.1c-0.3,9-1.4,17.9-4.4,26.4c-4.6,13.5-13.1,24-24.8,32c-8.6,5.8-18,10-27.8,13.2
		c-3,1-6,1.5-9.2,1.3c-3.4-0.2-4.6-2.2-2.9-5.2c0.6-1.1,1.4-2.1,2.4-3c5.8-5,10.5-10.8,14-17.5c7.2-13.5,13.6-27.3,18.2-41.9
		c4.2-13.6,2.1-26.2-5.5-38c-5.6-8.7-12.6-16.4-20.5-23.1c-4.5-3.8-9.3-7.4-13.8-11.1c-1.8-1.5-3.5-3-5-4.8c-2.4-3-1.4-5.2,2.3-5.9
		c3.1-0.6,6.1,0,9,1.1c10.8,4,21.5,8.2,31.5,14.1c5.8,3.4,11.4,7.2,16.1,12c10.1,10.4,16.9,22.6,19.2,37.1
		C1038.7,151.1,1038.9,155.6,1039.4,160.1z"/>
	<path class="st0" d="M965.3,311.5c0-6.2,0.1-12.5,0-18.7c-0.2-6.9-0.8-13.7-2.8-20.4c-0.7-2.4-1.8-4.6-2.6-7
		c-0.9-2.5-1.6-5-2.3-7.5c-0.2-0.8-0.1-1.8,0-2.6c0.3-2.2,1.7-3.4,3.9-3.6c2.5-0.2,4.9,0.6,7.2,1.4c5.6,1.9,11.4,2.6,17.3,1.7
		c4.7-0.7,9.4-1.8,14.1-2.7c4.1-0.8,8.1-1.7,12.2-2.3c1.4-0.2,2.9-0.1,4.3,0.2c2.3,0.5,3.5,2.2,2.7,4.5c-0.7,1.9-1.7,3.8-2.8,5.5
		c-1.3,2-2.9,3.8-4.3,5.7c-8.1,11.4-14,23.8-18.5,37c-5,14.9-8.4,30.1-10.6,45.7c-1.4,9.7-0.1,19,4.1,27.8c3,6.4,6.2,12.8,9.3,19.2
		c1,2.1,2.1,4.2,2.9,6.3c0.4,1.1,0.7,2.3,0.8,3.5c0.1,2-1.1,3.3-3.1,3.5c-1.8,0.2-3.4-0.5-4.5-1.7c-1.8-2-3.6-4.1-5.1-6.3
		c-7-10.4-11.9-21.7-15.3-33.7c-2.6-9.2-5.1-18.4-6-27.8c-0.6-6.1-0.6-12.3-0.8-18.4C965.2,317.6,965.2,314.6,965.3,311.5
		C965.2,311.5,965.3,311.5,965.3,311.5z"/>
</g>
</svg>
